<svg width="258" height="520" viewBox="0 0 258 520" fill="none" xmlns="http://www.w3.org/2000/svg">
<path d="M20.3906 14.5938C20.3906 17.7396 19.7396 20.1458 18.4375 21.8125C17.1354 23.4792 15.2292 24.3125 12.7188 24.3125C10.2396 24.3125 8.34375 23.4948 7.03125 21.8594C5.71875 20.224 5.04688 17.8802 5.01562 14.8281V10.6406C5.01562 7.46354 5.67188 5.05208 6.98438 3.40625C8.30729 1.76042 10.2083 0.9375 12.6875 0.9375C15.1667 0.9375 17.0625 1.75521 18.375 3.39062C19.6875 5.01562 20.3594 7.35417 20.3906 10.4062V14.5938ZM15.875 10C15.875 8.11458 15.6146 6.74479 15.0938 5.89062C14.5833 5.02604 13.7812 4.59375 12.6875 4.59375C11.625 4.59375 10.8385 5.00521 10.3281 5.82812C9.82812 6.64062 9.5625 7.91667 9.53125 9.65625V15.1875C9.53125 17.0417 9.78125 18.4219 10.2812 19.3281C10.7917 20.224 11.6042 20.6719 12.7188 20.6719C13.8229 20.6719 14.6198 20.2396 15.1094 19.375C15.599 18.5104 15.8542 17.1875 15.875 15.4062V10Z" fill="#194496"/>
<path d="M42.3906 24H37.875V6.59375L32.4844 8.26562V4.59375L41.9062 1.21875H42.3906V24Z" fill="#194496"/>
<path d="M73.0781 14.5938C73.0781 17.7396 72.4271 20.1458 71.125 21.8125C69.8229 23.4792 67.9167 24.3125 65.4062 24.3125C62.9271 24.3125 61.0312 23.4948 59.7188 21.8594C58.4062 20.224 57.7344 17.8802 57.7031 14.8281V10.6406C57.7031 7.46354 58.3594 5.05208 59.6719 3.40625C60.9948 1.76042 62.8958 0.9375 65.375 0.9375C67.8542 0.9375 69.75 1.75521 71.0625 3.39062C72.375 5.01562 73.0469 7.35417 73.0781 10.4062V14.5938ZM68.5625 10C68.5625 8.11458 68.3021 6.74479 67.7812 5.89062C67.2708 5.02604 66.4688 4.59375 65.375 4.59375C64.3125 4.59375 63.526 5.00521 63.0156 5.82812C62.5156 6.64062 62.25 7.91667 62.2188 9.65625V15.1875C62.2188 17.0417 62.4688 18.4219 62.9688 19.3281C63.4792 20.224 64.2917 20.6719 65.4062 20.6719C66.5104 20.6719 67.3073 20.2396 67.7969 19.375C68.2865 18.5104 68.5417 17.1875 68.5625 15.4062V10Z" fill="#194496"/>
<path d="M99.4219 14.5938C99.4219 17.7396 98.7708 20.1458 97.4688 21.8125C96.1667 23.4792 94.2604 24.3125 91.75 24.3125C89.2708 24.3125 87.375 23.4948 86.0625 21.8594C84.75 20.224 84.0781 17.8802 84.0469 14.8281V10.6406C84.0469 7.46354 84.7031 5.05208 86.0156 3.40625C87.3385 1.76042 89.2396 0.9375 91.7188 0.9375C94.1979 0.9375 96.0938 1.75521 97.4062 3.39062C98.7188 5.01562 99.3906 7.35417 99.4219 10.4062V14.5938ZM94.9062 10C94.9062 8.11458 94.6458 6.74479 94.125 5.89062C93.6146 5.02604 92.8125 4.59375 91.7188 4.59375C90.6562 4.59375 89.8698 5.00521 89.3594 5.82812C88.8594 6.64062 88.5938 7.91667 88.5625 9.65625V15.1875C88.5625 17.0417 88.8125 18.4219 89.3125 19.3281C89.8229 20.224 90.6354 20.6719 91.75 20.6719C92.8542 20.6719 93.651 20.2396 94.1406 19.375C94.6302 18.5104 94.8854 17.1875 94.9062 15.4062V10Z" fill="#194496"/>
<path d="M121.422 24H116.906V6.59375L111.516 8.26562V4.59375L120.938 1.21875H121.422V24Z" fill="#194496"/>
<path d="M147.766 24H143.25V6.59375L137.859 8.26562V4.59375L147.281 1.21875H147.766V24Z" fill="#194496"/>
<path d="M174.109 24H169.594V6.59375L164.203 8.26562V4.59375L173.625 1.21875H174.109V24Z" fill="#194496"/>
<path d="M204.797 14.5938C204.797 17.7396 204.146 20.1458 202.844 21.8125C201.542 23.4792 199.635 24.3125 197.125 24.3125C194.646 24.3125 192.75 23.4948 191.438 21.8594C190.125 20.224 189.453 17.8802 189.422 14.8281V10.6406C189.422 7.46354 190.078 5.05208 191.391 3.40625C192.714 1.76042 194.615 0.9375 197.094 0.9375C199.573 0.9375 201.469 1.75521 202.781 3.39062C204.094 5.01562 204.766 7.35417 204.797 10.4062V14.5938ZM200.281 10C200.281 8.11458 200.021 6.74479 199.5 5.89062C198.99 5.02604 198.188 4.59375 197.094 4.59375C196.031 4.59375 195.245 5.00521 194.734 5.82812C194.234 6.64062 193.969 7.91667 193.938 9.65625V15.1875C193.938 17.0417 194.188 18.4219 194.688 19.3281C195.198 20.224 196.01 20.6719 197.125 20.6719C198.229 20.6719 199.026 20.2396 199.516 19.375C200.005 18.5104 200.26 17.1875 200.281 15.4062V10Z" fill="#194496"/>
<path d="M226.797 24H222.281V6.59375L216.891 8.26562V4.59375L226.312 1.21875H226.797V24Z" fill="#194496"/>
<path d="M257.484 14.5938C257.484 17.7396 256.833 20.1458 255.531 21.8125C254.229 23.4792 252.323 24.3125 249.812 24.3125C247.333 24.3125 245.438 23.4948 244.125 21.8594C242.812 20.224 242.141 17.8802 242.109 14.8281V10.6406C242.109 7.46354 242.766 5.05208 244.078 3.40625C245.401 1.76042 247.302 0.9375 249.781 0.9375C252.26 0.9375 254.156 1.75521 255.469 3.39062C256.781 5.01562 257.453 7.35417 257.484 10.4062V14.5938ZM252.969 10C252.969 8.11458 252.708 6.74479 252.188 5.89062C251.677 5.02604 250.875 4.59375 249.781 4.59375C248.719 4.59375 247.932 5.00521 247.422 5.82812C246.922 6.64062 246.656 7.91667 246.625 9.65625V15.1875C246.625 17.0417 246.875 18.4219 247.375 19.3281C247.885 20.224 248.698 20.6719 249.812 20.6719C250.917 20.6719 251.714 20.2396 252.203 19.375C252.693 18.5104 252.948 17.1875 252.969 15.4062V10Z" fill="#194496"/>
<path d="M20.3906 59.5938C20.3906 62.7396 19.7396 65.1458 18.4375 66.8125C17.1354 68.4792 15.2292 69.3125 12.7188 69.3125C10.2396 69.3125 8.34375 68.4948 7.03125 66.8594C5.71875 65.224 5.04688 62.8802 5.01562 59.8281V55.6406C5.01562 52.4635 5.67188 50.0521 6.98438 48.4062C8.30729 46.7604 10.2083 45.9375 12.6875 45.9375C15.1667 45.9375 17.0625 46.7552 18.375 48.3906C19.6875 50.0156 20.3594 52.3542 20.3906 55.4062V59.5938ZM15.875 55C15.875 53.1146 15.6146 51.7448 15.0938 50.8906C14.5833 50.026 13.7812 49.5938 12.6875 49.5938C11.625 49.5938 10.8385 50.0052 10.3281 50.8281C9.82812 51.6406 9.5625 52.9167 9.53125 54.6562V60.1875C9.53125 62.0417 9.78125 63.4219 10.2812 64.3281C10.7917 65.224 11.6042 65.6719 12.7188 65.6719C13.8229 65.6719 14.6198 65.2396 15.1094 64.375C15.599 63.5104 15.8542 62.1875 15.875 60.4062V55Z" fill="#194496"/>
<path d="M46.7344 59.5938C46.7344 62.7396 46.0833 65.1458 44.7812 66.8125C43.4792 68.4792 41.5729 69.3125 39.0625 69.3125C36.5833 69.3125 34.6875 68.4948 33.375 66.8594C32.0625 65.224 31.3906 62.8802 31.3594 59.8281V55.6406C31.3594 52.4635 32.0156 50.0521 33.3281 48.4062C34.651 46.7604 36.5521 45.9375 39.0312 45.9375C41.5104 45.9375 43.4062 46.7552 44.7188 48.3906C46.0312 50.0156 46.7031 52.3542 46.7344 55.4062V59.5938ZM42.2188 55C42.2188 53.1146 41.9583 51.7448 41.4375 50.8906C40.9271 50.026 40.125 49.5938 39.0312 49.5938C37.9688 49.5938 37.1823 50.0052 36.6719 50.8281C36.1719 51.6406 35.9062 52.9167 35.875 54.6562V60.1875C35.875 62.0417 36.125 63.4219 36.625 64.3281C37.1354 65.224 37.9479 65.6719 39.0625 65.6719C40.1667 65.6719 40.9635 65.2396 41.4531 64.375C41.9427 63.5104 42.1979 62.1875 42.2188 60.4062V55Z" fill="#194496"/>
<path d="M68.7344 69H64.2188V51.5938L58.8281 53.2656V49.5938L68.25 46.2188H68.7344V69Z" fill="#194496"/>
<path d="M99.4219 59.5938C99.4219 62.7396 98.7708 65.1458 97.4688 66.8125C96.1667 68.4792 94.2604 69.3125 91.75 69.3125C89.2708 69.3125 87.375 68.4948 86.0625 66.8594C84.75 65.224 84.0781 62.8802 84.0469 59.8281V55.6406C84.0469 52.4635 84.7031 50.0521 86.0156 48.4062C87.3385 46.7604 89.2396 45.9375 91.7188 45.9375C94.1979 45.9375 96.0938 46.7552 97.4062 48.3906C98.7188 50.0156 99.3906 52.3542 99.4219 55.4062V59.5938ZM94.9062 55C94.9062 53.1146 94.6458 51.7448 94.125 50.8906C93.6146 50.026 92.8125 49.5938 91.7188 49.5938C90.6562 49.5938 89.8698 50.0052 89.3594 50.8281C88.8594 51.6406 88.5938 52.9167 88.5625 54.6562V60.1875C88.5625 62.0417 88.8125 63.4219 89.3125 64.3281C89.8229 65.224 90.6354 65.6719 91.75 65.6719C92.8542 65.6719 93.651 65.2396 94.1406 64.375C94.6302 63.5104 94.8854 62.1875 94.9062 60.4062V55Z" fill="#194496"/>
<path d="M125.766 59.5938C125.766 62.7396 125.115 65.1458 123.812 66.8125C122.51 68.4792 120.604 69.3125 118.094 69.3125C115.615 69.3125 113.719 68.4948 112.406 66.8594C111.094 65.224 110.422 62.8802 110.391 59.8281V55.6406C110.391 52.4635 111.047 50.0521 112.359 48.4062C113.682 46.7604 115.583 45.9375 118.062 45.9375C120.542 45.9375 122.438 46.7552 123.75 48.3906C125.062 50.0156 125.734 52.3542 125.766 55.4062V59.5938ZM121.25 55C121.25 53.1146 120.99 51.7448 120.469 50.8906C119.958 50.026 119.156 49.5938 118.062 49.5938C117 49.5938 116.214 50.0052 115.703 50.8281C115.203 51.6406 114.938 52.9167 114.906 54.6562V60.1875C114.906 62.0417 115.156 63.4219 115.656 64.3281C116.167 65.224 116.979 65.6719 118.094 65.6719C119.198 65.6719 119.995 65.2396 120.484 64.375C120.974 63.5104 121.229 62.1875 121.25 60.4062V55Z" fill="#194496"/>
<path d="M147.766 69H143.25V51.5938L137.859 53.2656V49.5938L147.281 46.2188H147.766V69Z" fill="#194496"/>
<path d="M174.109 69H169.594V51.5938L164.203 53.2656V49.5938L173.625 46.2188H174.109V69Z" fill="#194496"/>
<path d="M200.453 69H195.938V51.5938L190.547 53.2656V49.5938L199.969 46.2188H200.453V69Z" fill="#194496"/>
<path d="M231.141 59.5938C231.141 62.7396 230.49 65.1458 229.188 66.8125C227.885 68.4792 225.979 69.3125 223.469 69.3125C220.99 69.3125 219.094 68.4948 217.781 66.8594C216.469 65.224 215.797 62.8802 215.766 59.8281V55.6406C215.766 52.4635 216.422 50.0521 217.734 48.4062C219.057 46.7604 220.958 45.9375 223.438 45.9375C225.917 45.9375 227.812 46.7552 229.125 48.3906C230.438 50.0156 231.109 52.3542 231.141 55.4062V59.5938ZM226.625 55C226.625 53.1146 226.365 51.7448 225.844 50.8906C225.333 50.026 224.531 49.5938 223.438 49.5938C222.375 49.5938 221.589 50.0052 221.078 50.8281C220.578 51.6406 220.312 52.9167 220.281 54.6562V60.1875C220.281 62.0417 220.531 63.4219 221.031 64.3281C221.542 65.224 222.354 65.6719 223.469 65.6719C224.573 65.6719 225.37 65.2396 225.859 64.375C226.349 63.5104 226.604 62.1875 226.625 60.4062V55Z" fill="#194496"/>
<path d="M253.141 69H248.625V51.5938L243.234 53.2656V49.5938L252.656 46.2188H253.141V69Z" fill="#194496"/>
<path d="M20.3906 104.594C20.3906 107.74 19.7396 110.146 18.4375 111.812C17.1354 113.479 15.2292 114.312 12.7188 114.312C10.2396 114.312 8.34375 113.495 7.03125 111.859C5.71875 110.224 5.04688 107.88 5.01562 104.828V100.641C5.01562 97.4635 5.67188 95.0521 6.98438 93.4062C8.30729 91.7604 10.2083 90.9375 12.6875 90.9375C15.1667 90.9375 17.0625 91.7552 18.375 93.3906C19.6875 95.0156 20.3594 97.3542 20.3906 100.406V104.594ZM15.875 100C15.875 98.1146 15.6146 96.7448 15.0938 95.8906C14.5833 95.026 13.7812 94.5938 12.6875 94.5938C11.625 94.5938 10.8385 95.0052 10.3281 95.8281C9.82812 96.6406 9.5625 97.9167 9.53125 99.6562V105.188C9.53125 107.042 9.78125 108.422 10.2812 109.328C10.7917 110.224 11.6042 110.672 12.7188 110.672C13.8229 110.672 14.6198 110.24 15.1094 109.375C15.599 108.51 15.8542 107.188 15.875 105.406V100Z" fill="#194496"/>
<path d="M42.3906 114H37.875V96.5938L32.4844 98.2656V94.5938L41.9062 91.2188H42.3906V114Z" fill="#194496"/>
<path d="M73.0781 104.594C73.0781 107.74 72.4271 110.146 71.125 111.812C69.8229 113.479 67.9167 114.312 65.4062 114.312C62.9271 114.312 61.0312 113.495 59.7188 111.859C58.4062 110.224 57.7344 107.88 57.7031 104.828V100.641C57.7031 97.4635 58.3594 95.0521 59.6719 93.4062C60.9948 91.7604 62.8958 90.9375 65.375 90.9375C67.8542 90.9375 69.75 91.7552 71.0625 93.3906C72.375 95.0156 73.0469 97.3542 73.0781 100.406V104.594ZM68.5625 100C68.5625 98.1146 68.3021 96.7448 67.7812 95.8906C67.2708 95.026 66.4688 94.5938 65.375 94.5938C64.3125 94.5938 63.526 95.0052 63.0156 95.8281C62.5156 96.6406 62.25 97.9167 62.2188 99.6562V105.188C62.2188 107.042 62.4688 108.422 62.9688 109.328C63.4792 110.224 64.2917 110.672 65.4062 110.672C66.5104 110.672 67.3073 110.24 67.7969 109.375C68.2865 108.51 68.5417 107.188 68.5625 105.406V100Z" fill="#194496"/>
<path d="M95.0781 114H90.5625V96.5938L85.1719 98.2656V94.5938L94.5938 91.2188H95.0781V114Z" fill="#194496"/>
<path d="M125.766 104.594C125.766 107.74 125.115 110.146 123.812 111.812C122.51 113.479 120.604 114.312 118.094 114.312C115.615 114.312 113.719 113.495 112.406 111.859C111.094 110.224 110.422 107.88 110.391 104.828V100.641C110.391 97.4635 111.047 95.0521 112.359 93.4062C113.682 91.7604 115.583 90.9375 118.062 90.9375C120.542 90.9375 122.438 91.7552 123.75 93.3906C125.062 95.0156 125.734 97.3542 125.766 100.406V104.594ZM121.25 100C121.25 98.1146 120.99 96.7448 120.469 95.8906C119.958 95.026 119.156 94.5938 118.062 94.5938C117 94.5938 116.214 95.0052 115.703 95.8281C115.203 96.6406 114.938 97.9167 114.906 99.6562V105.188C114.906 107.042 115.156 108.422 115.656 109.328C116.167 110.224 116.979 110.672 118.094 110.672C119.198 110.672 119.995 110.24 120.484 109.375C120.974 108.51 121.229 107.188 121.25 105.406V100Z" fill="#194496"/>
<path d="M152.109 104.594C152.109 107.74 151.458 110.146 150.156 111.812C148.854 113.479 146.948 114.312 144.438 114.312C141.958 114.312 140.062 113.495 138.75 111.859C137.438 110.224 136.766 107.88 136.734 104.828V100.641C136.734 97.4635 137.391 95.0521 138.703 93.4062C140.026 91.7604 141.927 90.9375 144.406 90.9375C146.885 90.9375 148.781 91.7552 150.094 93.3906C151.406 95.0156 152.078 97.3542 152.109 100.406V104.594ZM147.594 100C147.594 98.1146 147.333 96.7448 146.812 95.8906C146.302 95.026 145.5 94.5938 144.406 94.5938C143.344 94.5938 142.557 95.0052 142.047 95.8281C141.547 96.6406 141.281 97.9167 141.25 99.6562V105.188C141.25 107.042 141.5 108.422 142 109.328C142.51 110.224 143.323 110.672 144.438 110.672C145.542 110.672 146.339 110.24 146.828 109.375C147.318 108.51 147.573 107.188 147.594 105.406V100Z" fill="#194496"/>
<path d="M174.109 114H169.594V96.5938L164.203 98.2656V94.5938L173.625 91.2188H174.109V114Z" fill="#194496"/>
<path d="M200.453 114H195.938V96.5938L190.547 98.2656V94.5938L199.969 91.2188H200.453V114Z" fill="#194496"/>
<path d="M226.797 114H222.281V96.5938L216.891 98.2656V94.5938L226.312 91.2188H226.797V114Z" fill="#194496"/>
<path d="M257.484 104.594C257.484 107.74 256.833 110.146 255.531 111.812C254.229 113.479 252.323 114.312 249.812 114.312C247.333 114.312 245.438 113.495 244.125 111.859C242.812 110.224 242.141 107.88 242.109 104.828V100.641C242.109 97.4635 242.766 95.0521 244.078 93.4062C245.401 91.7604 247.302 90.9375 249.781 90.9375C252.26 90.9375 254.156 91.7552 255.469 93.3906C256.781 95.0156 257.453 97.3542 257.484 100.406V104.594ZM252.969 100C252.969 98.1146 252.708 96.7448 252.188 95.8906C251.677 95.026 250.875 94.5938 249.781 94.5938C248.719 94.5938 247.932 95.0052 247.422 95.8281C246.922 96.6406 246.656 97.9167 246.625 99.6562V105.188C246.625 107.042 246.875 108.422 247.375 109.328C247.885 110.224 248.698 110.672 249.812 110.672C250.917 110.672 251.714 110.24 252.203 109.375C252.693 108.51 252.948 107.188 252.969 105.406V100Z" fill="#194496"/>
<path d="M8.07812 159H3.5625V141.594L-1.82812 143.266V139.594L7.59375 136.219H8.07812V159Z" fill="#194496"/>
<path d="M38.7656 149.594C38.7656 152.74 38.1146 155.146 36.8125 156.812C35.5104 158.479 33.6042 159.312 31.0938 159.312C28.6146 159.312 26.7188 158.495 25.4062 156.859C24.0938 155.224 23.4219 152.88 23.3906 149.828V145.641C23.3906 142.464 24.0469 140.052 25.3594 138.406C26.6823 136.76 28.5833 135.938 31.0625 135.938C33.5417 135.938 35.4375 136.755 36.75 138.391C38.0625 140.016 38.7344 142.354 38.7656 145.406V149.594ZM34.25 145C34.25 143.115 33.9896 141.745 33.4688 140.891C32.9583 140.026 32.1562 139.594 31.0625 139.594C30 139.594 29.2135 140.005 28.7031 140.828C28.2031 141.641 27.9375 142.917 27.9062 144.656V150.188C27.9062 152.042 28.1562 153.422 28.6562 154.328C29.1667 155.224 29.9792 155.672 31.0938 155.672C32.1979 155.672 32.9948 155.24 33.4844 154.375C33.974 153.51 34.2292 152.188 34.25 150.406V145Z" fill="#194496"/>
<path d="M60.7656 159H56.25V141.594L50.8594 143.266V139.594L60.2812 136.219H60.7656V159Z" fill="#194496"/>
<path d="M99.4219 149.594C99.4219 152.74 98.7708 155.146 97.4688 156.812C96.1667 158.479 94.2604 159.312 91.75 159.312C89.2708 159.312 87.375 158.495 86.0625 156.859C84.75 155.224 84.0781 152.88 84.0469 149.828V145.641C84.0469 142.464 84.7031 140.052 86.0156 138.406C87.3385 136.76 89.2396 135.938 91.7188 135.938C94.1979 135.938 96.0938 136.755 97.4062 138.391C98.7188 140.016 99.3906 142.354 99.4219 145.406V149.594ZM94.9062 145C94.9062 143.115 94.6458 141.745 94.125 140.891C93.6146 140.026 92.8125 139.594 91.7188 139.594C90.6562 139.594 89.8698 140.005 89.3594 140.828C88.8594 141.641 88.5938 142.917 88.5625 144.656V150.188C88.5625 152.042 88.8125 153.422 89.3125 154.328C89.8229 155.224 90.6354 155.672 91.75 155.672C92.8542 155.672 93.651 155.24 94.1406 154.375C94.6302 153.51 94.8854 152.188 94.9062 150.406V145Z" fill="#194496"/>
<path d="M121.422 159H116.906V141.594L111.516 143.266V139.594L120.938 136.219H121.422V159Z" fill="#194496"/>
<path d="M152.109 149.594C152.109 152.74 151.458 155.146 150.156 156.812C148.854 158.479 146.948 159.312 144.438 159.312C141.958 159.312 140.062 158.495 138.75 156.859C137.438 155.224 136.766 152.88 136.734 149.828V145.641C136.734 142.464 137.391 140.052 138.703 138.406C140.026 136.76 141.927 135.938 144.406 135.938C146.885 135.938 148.781 136.755 150.094 138.391C151.406 140.016 152.078 142.354 152.109 145.406V149.594ZM147.594 145C147.594 143.115 147.333 141.745 146.812 140.891C146.302 140.026 145.5 139.594 144.406 139.594C143.344 139.594 142.557 140.005 142.047 140.828C141.547 141.641 141.281 142.917 141.25 144.656V150.188C141.25 152.042 141.5 153.422 142 154.328C142.51 155.224 143.323 155.672 144.438 155.672C145.542 155.672 146.339 155.24 146.828 154.375C147.318 153.51 147.573 152.188 147.594 150.406V145Z" fill="#194496"/>
<path d="M178.453 149.594C178.453 152.74 177.802 155.146 176.5 156.812C175.198 158.479 173.292 159.312 170.781 159.312C168.302 159.312 166.406 158.495 165.094 156.859C163.781 155.224 163.109 152.88 163.078 149.828V145.641C163.078 142.464 163.734 140.052 165.047 138.406C166.37 136.76 168.271 135.938 170.75 135.938C173.229 135.938 175.125 136.755 176.438 138.391C177.75 140.016 178.422 142.354 178.453 145.406V149.594ZM173.938 145C173.938 143.115 173.677 141.745 173.156 140.891C172.646 140.026 171.844 139.594 170.75 139.594C169.688 139.594 168.901 140.005 168.391 140.828C167.891 141.641 167.625 142.917 167.594 144.656V150.188C167.594 152.042 167.844 153.422 168.344 154.328C168.854 155.224 169.667 155.672 170.781 155.672C171.885 155.672 172.682 155.24 173.172 154.375C173.661 153.51 173.917 152.188 173.938 150.406V145Z" fill="#194496"/>
<path d="M200.453 159H195.938V141.594L190.547 143.266V139.594L199.969 136.219H200.453V159Z" fill="#194496"/>
<path d="M226.797 159H222.281V141.594L216.891 143.266V139.594L226.312 136.219H226.797V159Z" fill="#194496"/>
<path d="M253.141 159H248.625V141.594L243.234 143.266V139.594L252.656 136.219H253.141V159Z" fill="#194496"/>
<path d="M20.3906 194.594C20.3906 197.74 19.7396 200.146 18.4375 201.812C17.1354 203.479 15.2292 204.312 12.7188 204.312C10.2396 204.312 8.34375 203.495 7.03125 201.859C5.71875 200.224 5.04688 197.88 5.01562 194.828V190.641C5.01562 187.464 5.67188 185.052 6.98438 183.406C8.30729 181.76 10.2083 180.938 12.6875 180.938C15.1667 180.938 17.0625 181.755 18.375 183.391C19.6875 185.016 20.3594 187.354 20.3906 190.406V194.594ZM15.875 190C15.875 188.115 15.6146 186.745 15.0938 185.891C14.5833 185.026 13.7812 184.594 12.6875 184.594C11.625 184.594 10.8385 185.005 10.3281 185.828C9.82812 186.641 9.5625 187.917 9.53125 189.656V195.188C9.53125 197.042 9.78125 198.422 10.2812 199.328C10.7917 200.224 11.6042 200.672 12.7188 200.672C13.8229 200.672 14.6198 200.24 15.1094 199.375C15.599 198.51 15.8542 197.188 15.875 195.406V190Z" fill="#194496"/>
<path d="M42.3906 204H37.875V186.594L32.4844 188.266V184.594L41.9062 181.219H42.3906V204Z" fill="#194496"/>
<path d="M73.0781 194.594C73.0781 197.74 72.4271 200.146 71.125 201.812C69.8229 203.479 67.9167 204.312 65.4062 204.312C62.9271 204.312 61.0312 203.495 59.7188 201.859C58.4062 200.224 57.7344 197.88 57.7031 194.828V190.641C57.7031 187.464 58.3594 185.052 59.6719 183.406C60.9948 181.76 62.8958 180.938 65.375 180.938C67.8542 180.938 69.75 181.755 71.0625 183.391C72.375 185.016 73.0469 187.354 73.0781 190.406V194.594ZM68.5625 190C68.5625 188.115 68.3021 186.745 67.7812 185.891C67.2708 185.026 66.4688 184.594 65.375 184.594C64.3125 184.594 63.526 185.005 63.0156 185.828C62.5156 186.641 62.25 187.917 62.2188 189.656V195.188C62.2188 197.042 62.4688 198.422 62.9688 199.328C63.4792 200.224 64.2917 200.672 65.4062 200.672C66.5104 200.672 67.3073 200.24 67.7969 199.375C68.2865 198.51 68.5417 197.188 68.5625 195.406V190Z" fill="#194496"/>
<path d="M95.0781 204H90.5625V186.594L85.1719 188.266V184.594L94.5938 181.219H95.0781V204Z" fill="#194496"/>
<path d="M125.766 194.594C125.766 197.74 125.115 200.146 123.812 201.812C122.51 203.479 120.604 204.312 118.094 204.312C115.615 204.312 113.719 203.495 112.406 201.859C111.094 200.224 110.422 197.88 110.391 194.828V190.641C110.391 187.464 111.047 185.052 112.359 183.406C113.682 181.76 115.583 180.938 118.062 180.938C120.542 180.938 122.438 181.755 123.75 183.391C125.062 185.016 125.734 187.354 125.766 190.406V194.594ZM121.25 190C121.25 188.115 120.99 186.745 120.469 185.891C119.958 185.026 119.156 184.594 118.062 184.594C117 184.594 116.214 185.005 115.703 185.828C115.203 186.641 114.938 187.917 114.906 189.656V195.188C114.906 197.042 115.156 198.422 115.656 199.328C116.167 200.224 116.979 200.672 118.094 200.672C119.198 200.672 119.995 200.24 120.484 199.375C120.974 198.51 121.229 197.188 121.25 195.406V190Z" fill="#194496"/>
<path d="M152.109 194.594C152.109 197.74 151.458 200.146 150.156 201.812C148.854 203.479 146.948 204.312 144.438 204.312C141.958 204.312 140.062 203.495 138.75 201.859C137.438 200.224 136.766 197.88 136.734 194.828V190.641C136.734 187.464 137.391 185.052 138.703 183.406C140.026 181.76 141.927 180.938 144.406 180.938C146.885 180.938 148.781 181.755 150.094 183.391C151.406 185.016 152.078 187.354 152.109 190.406V194.594ZM147.594 190C147.594 188.115 147.333 186.745 146.812 185.891C146.302 185.026 145.5 184.594 144.406 184.594C143.344 184.594 142.557 185.005 142.047 185.828C141.547 186.641 141.281 187.917 141.25 189.656V195.188C141.25 197.042 141.5 198.422 142 199.328C142.51 200.224 143.323 200.672 144.438 200.672C145.542 200.672 146.339 200.24 146.828 199.375C147.318 198.51 147.573 197.188 147.594 195.406V190Z" fill="#194496"/>
<path d="M178.453 194.594C178.453 197.74 177.802 200.146 176.5 201.812C175.198 203.479 173.292 204.312 170.781 204.312C168.302 204.312 166.406 203.495 165.094 201.859C163.781 200.224 163.109 197.88 163.078 194.828V190.641C163.078 187.464 163.734 185.052 165.047 183.406C166.37 181.76 168.271 180.938 170.75 180.938C173.229 180.938 175.125 181.755 176.438 183.391C177.75 185.016 178.422 187.354 178.453 190.406V194.594ZM173.938 190C173.938 188.115 173.677 186.745 173.156 185.891C172.646 185.026 171.844 184.594 170.75 184.594C169.688 184.594 168.901 185.005 168.391 185.828C167.891 186.641 167.625 187.917 167.594 189.656V195.188C167.594 197.042 167.844 198.422 168.344 199.328C168.854 200.224 169.667 200.672 170.781 200.672C171.885 200.672 172.682 200.24 173.172 199.375C173.661 198.51 173.917 197.188 173.938 195.406V190Z" fill="#194496"/>
<path d="M200.453 204H195.938V186.594L190.547 188.266V184.594L199.969 181.219H200.453V204Z" fill="#194496"/>
<path d="M226.797 204H222.281V186.594L216.891 188.266V184.594L226.312 181.219H226.797V204Z" fill="#194496"/>
<path d="M253.141 204H248.625V186.594L243.234 188.266V184.594L252.656 181.219H253.141V204Z" fill="#194496"/>
<path d="M12.4219 239.594C12.4219 242.74 11.7708 245.146 10.4688 246.812C9.16667 248.479 7.26042 249.312 4.75 249.312C2.27083 249.312 0.375 248.495 -0.9375 246.859C-2.25 245.224 -2.92188 242.88 -2.95312 239.828V235.641C-2.95312 232.464 -2.29688 230.052 -0.984375 228.406C0.338542 226.76 2.23958 225.938 4.71875 225.938C7.19792 225.938 9.09375 226.755 10.4062 228.391C11.7188 230.016 12.3906 232.354 12.4219 235.406V239.594ZM7.90625 235C7.90625 233.115 7.64583 231.745 7.125 230.891C6.61458 230.026 5.8125 229.594 4.71875 229.594C3.65625 229.594 2.86979 230.005 2.35938 230.828C1.85938 231.641 1.59375 232.917 1.5625 234.656V240.188C1.5625 242.042 1.8125 243.422 2.3125 244.328C2.82292 245.224 3.63542 245.672 4.75 245.672C5.85417 245.672 6.65104 245.24 7.14062 244.375C7.63021 243.51 7.88542 242.188 7.90625 240.406V235Z" fill="#194496"/>
<path d="M34.4219 249H29.9062V231.594L24.5156 233.266V229.594L33.9375 226.219H34.4219V249Z" fill="#194496"/>
<path d="M65.1094 239.594C65.1094 242.74 64.4583 245.146 63.1562 246.812C61.8542 248.479 59.9479 249.312 57.4375 249.312C54.9583 249.312 53.0625 248.495 51.75 246.859C50.4375 245.224 49.7656 242.88 49.7344 239.828V235.641C49.7344 232.464 50.3906 230.052 51.7031 228.406C53.026 226.76 54.9271 225.938 57.4062 225.938C59.8854 225.938 61.7812 226.755 63.0938 228.391C64.4062 230.016 65.0781 232.354 65.1094 235.406V239.594ZM60.5938 235C60.5938 233.115 60.3333 231.745 59.8125 230.891C59.3021 230.026 58.5 229.594 57.4062 229.594C56.3438 229.594 55.5573 230.005 55.0469 230.828C54.5469 231.641 54.2812 232.917 54.25 234.656V240.188C54.25 242.042 54.5 243.422 55 244.328C55.5104 245.224 56.3229 245.672 57.4375 245.672C58.5417 245.672 59.3385 245.24 59.8281 244.375C60.3177 243.51 60.5729 242.188 60.5938 240.406V235Z" fill="#194496"/>
<path d="M91.4531 239.594C91.4531 242.74 90.8021 245.146 89.5 246.812C88.1979 248.479 86.2917 249.312 83.7812 249.312C81.3021 249.312 79.4062 248.495 78.0938 246.859C76.7812 245.224 76.1094 242.88 76.0781 239.828V235.641C76.0781 232.464 76.7344 230.052 78.0469 228.406C79.3698 226.76 81.2708 225.938 83.75 225.938C86.2292 225.938 88.125 226.755 89.4375 228.391C90.75 230.016 91.4219 232.354 91.4531 235.406V239.594ZM86.9375 235C86.9375 233.115 86.6771 231.745 86.1562 230.891C85.6458 230.026 84.8438 229.594 83.75 229.594C82.6875 229.594 81.901 230.005 81.3906 230.828C80.8906 231.641 80.625 232.917 80.5938 234.656V240.188C80.5938 242.042 80.8438 243.422 81.3438 244.328C81.8542 245.224 82.6667 245.672 83.7812 245.672C84.8854 245.672 85.6823 245.24 86.1719 244.375C86.6615 243.51 86.9167 242.188 86.9375 240.406V235Z" fill="#194496"/>
<path d="M125.766 239.594C125.766 242.74 125.115 245.146 123.812 246.812C122.51 248.479 120.604 249.312 118.094 249.312C115.615 249.312 113.719 248.495 112.406 246.859C111.094 245.224 110.422 242.88 110.391 239.828V235.641C110.391 232.464 111.047 230.052 112.359 228.406C113.682 226.76 115.583 225.938 118.062 225.938C120.542 225.938 122.438 226.755 123.75 228.391C125.062 230.016 125.734 232.354 125.766 235.406V239.594ZM121.25 235C121.25 233.115 120.99 231.745 120.469 230.891C119.958 230.026 119.156 229.594 118.062 229.594C117 229.594 116.214 230.005 115.703 230.828C115.203 231.641 114.938 232.917 114.906 234.656V240.188C114.906 242.042 115.156 243.422 115.656 244.328C116.167 245.224 116.979 245.672 118.094 245.672C119.198 245.672 119.995 245.24 120.484 244.375C120.974 243.51 121.229 242.188 121.25 240.406V235Z" fill="#194496"/>
<path d="M147.766 249H143.25V231.594L137.859 233.266V229.594L147.281 226.219H147.766V249Z" fill="#194496"/>
<path d="M178.453 239.594C178.453 242.74 177.802 245.146 176.5 246.812C175.198 248.479 173.292 249.312 170.781 249.312C168.302 249.312 166.406 248.495 165.094 246.859C163.781 245.224 163.109 242.88 163.078 239.828V235.641C163.078 232.464 163.734 230.052 165.047 228.406C166.37 226.76 168.271 225.938 170.75 225.938C173.229 225.938 175.125 226.755 176.438 228.391C177.75 230.016 178.422 232.354 178.453 235.406V239.594ZM173.938 235C173.938 233.115 173.677 231.745 173.156 230.891C172.646 230.026 171.844 229.594 170.75 229.594C169.688 229.594 168.901 230.005 168.391 230.828C167.891 231.641 167.625 232.917 167.594 234.656V240.188C167.594 242.042 167.844 243.422 168.344 244.328C168.854 245.224 169.667 245.672 170.781 245.672C171.885 245.672 172.682 245.24 173.172 244.375C173.661 243.51 173.917 242.188 173.938 240.406V235Z" fill="#194496"/>
<path d="M204.797 239.594C204.797 242.74 204.146 245.146 202.844 246.812C201.542 248.479 199.635 249.312 197.125 249.312C194.646 249.312 192.75 248.495 191.438 246.859C190.125 245.224 189.453 242.88 189.422 239.828V235.641C189.422 232.464 190.078 230.052 191.391 228.406C192.714 226.76 194.615 225.938 197.094 225.938C199.573 225.938 201.469 226.755 202.781 228.391C204.094 230.016 204.766 232.354 204.797 235.406V239.594ZM200.281 235C200.281 233.115 200.021 231.745 199.5 230.891C198.99 230.026 198.188 229.594 197.094 229.594C196.031 229.594 195.245 230.005 194.734 230.828C194.234 231.641 193.969 232.917 193.938 234.656V240.188C193.938 242.042 194.188 243.422 194.688 244.328C195.198 245.224 196.01 245.672 197.125 245.672C198.229 245.672 199.026 245.24 199.516 244.375C200.005 243.51 200.26 242.188 200.281 240.406V235Z" fill="#194496"/>
<path d="M226.797 249H222.281V231.594L216.891 233.266V229.594L226.312 226.219H226.797V249Z" fill="#194496"/>
<path d="M253.141 249H248.625V231.594L243.234 233.266V229.594L252.656 226.219H253.141V249Z" fill="#194496"/>
<path d="M16.0469 294H11.5312V276.594L6.14062 278.266V274.594L15.5625 271.219H16.0469V294Z" fill="#194496"/>
<path d="M46.7344 284.594C46.7344 287.74 46.0833 290.146 44.7812 291.812C43.4792 293.479 41.5729 294.312 39.0625 294.312C36.5833 294.312 34.6875 293.495 33.375 291.859C32.0625 290.224 31.3906 287.88 31.3594 284.828V280.641C31.3594 277.464 32.0156 275.052 33.3281 273.406C34.651 271.76 36.5521 270.938 39.0312 270.938C41.5104 270.938 43.4062 271.755 44.7188 273.391C46.0312 275.016 46.7031 277.354 46.7344 280.406V284.594ZM42.2188 280C42.2188 278.115 41.9583 276.745 41.4375 275.891C40.9271 275.026 40.125 274.594 39.0312 274.594C37.9688 274.594 37.1823 275.005 36.6719 275.828C36.1719 276.641 35.9062 277.917 35.875 279.656V285.188C35.875 287.042 36.125 288.422 36.625 289.328C37.1354 290.224 37.9479 290.672 39.0625 290.672C40.1667 290.672 40.9635 290.24 41.4531 289.375C41.9427 288.51 42.1979 287.188 42.2188 285.406V280Z" fill="#194496"/>
<path d="M68.7344 294H64.2188V276.594L58.8281 278.266V274.594L68.25 271.219H68.7344V294Z" fill="#194496"/>
<path d="M99.4219 284.594C99.4219 287.74 98.7708 290.146 97.4688 291.812C96.1667 293.479 94.2604 294.312 91.75 294.312C89.2708 294.312 87.375 293.495 86.0625 291.859C84.75 290.224 84.0781 287.88 84.0469 284.828V280.641C84.0469 277.464 84.7031 275.052 86.0156 273.406C87.3385 271.76 89.2396 270.938 91.7188 270.938C94.1979 270.938 96.0938 271.755 97.4062 273.391C98.7188 275.016 99.3906 277.354 99.4219 280.406V284.594ZM94.9062 280C94.9062 278.115 94.6458 276.745 94.125 275.891C93.6146 275.026 92.8125 274.594 91.7188 274.594C90.6562 274.594 89.8698 275.005 89.3594 275.828C88.8594 276.641 88.5938 277.917 88.5625 279.656V285.188C88.5625 287.042 88.8125 288.422 89.3125 289.328C89.8229 290.224 90.6354 290.672 91.75 290.672C92.8542 290.672 93.651 290.24 94.1406 289.375C94.6302 288.51 94.8854 287.188 94.9062 285.406V280Z" fill="#194496"/>
<path d="M121.422 294H116.906V276.594L111.516 278.266V274.594L120.938 271.219H121.422V294Z" fill="#194496"/>
<path d="M147.766 294H143.25V276.594L137.859 278.266V274.594L147.281 271.219H147.766V294Z" fill="#194496"/>
<path d="M178.453 284.594C178.453 287.74 177.802 290.146 176.5 291.812C175.198 293.479 173.292 294.312 170.781 294.312C168.302 294.312 166.406 293.495 165.094 291.859C163.781 290.224 163.109 287.88 163.078 284.828V280.641C163.078 277.464 163.734 275.052 165.047 273.406C166.37 271.76 168.271 270.938 170.75 270.938C173.229 270.938 175.125 271.755 176.438 273.391C177.75 275.016 178.422 277.354 178.453 280.406V284.594ZM173.938 280C173.938 278.115 173.677 276.745 173.156 275.891C172.646 275.026 171.844 274.594 170.75 274.594C169.688 274.594 168.901 275.005 168.391 275.828C167.891 276.641 167.625 277.917 167.594 279.656V285.188C167.594 287.042 167.844 288.422 168.344 289.328C168.854 290.224 169.667 290.672 170.781 290.672C171.885 290.672 172.682 290.24 173.172 289.375C173.661 288.51 173.917 287.188 173.938 285.406V280Z" fill="#194496"/>
<path d="M204.797 284.594C204.797 287.74 204.146 290.146 202.844 291.812C201.542 293.479 199.635 294.312 197.125 294.312C194.646 294.312 192.75 293.495 191.438 291.859C190.125 290.224 189.453 287.88 189.422 284.828V280.641C189.422 277.464 190.078 275.052 191.391 273.406C192.714 271.76 194.615 270.938 197.094 270.938C199.573 270.938 201.469 271.755 202.781 273.391C204.094 275.016 204.766 277.354 204.797 280.406V284.594ZM200.281 280C200.281 278.115 200.021 276.745 199.5 275.891C198.99 275.026 198.188 274.594 197.094 274.594C196.031 274.594 195.245 275.005 194.734 275.828C194.234 276.641 193.969 277.917 193.938 279.656V285.188C193.938 287.042 194.188 288.422 194.688 289.328C195.198 290.224 196.01 290.672 197.125 290.672C198.229 290.672 199.026 290.24 199.516 289.375C200.005 288.51 200.26 287.188 200.281 285.406V280Z" fill="#194496"/>
<path d="M226.797 294H222.281V276.594L216.891 278.266V274.594L226.312 271.219H226.797V294Z" fill="#194496"/>
<path d="M253.141 294H248.625V276.594L243.234 278.266V274.594L252.656 271.219H253.141V294Z" fill="#194496"/>
<path d="M8.07812 339H3.5625V321.594L-1.82812 323.266V319.594L7.59375 316.219H8.07812V339Z" fill="#194496"/>
<path d="M38.7656 329.594C38.7656 332.74 38.1146 335.146 36.8125 336.812C35.5104 338.479 33.6042 339.312 31.0938 339.312C28.6146 339.312 26.7188 338.495 25.4062 336.859C24.0938 335.224 23.4219 332.88 23.3906 329.828V325.641C23.3906 322.464 24.0469 320.052 25.3594 318.406C26.6823 316.76 28.5833 315.938 31.0625 315.938C33.5417 315.938 35.4375 316.755 36.75 318.391C38.0625 320.016 38.7344 322.354 38.7656 325.406V329.594ZM34.25 325C34.25 323.115 33.9896 321.745 33.4688 320.891C32.9583 320.026 32.1562 319.594 31.0625 319.594C30 319.594 29.2135 320.005 28.7031 320.828C28.2031 321.641 27.9375 322.917 27.9062 324.656V330.188C27.9062 332.042 28.1562 333.422 28.6562 334.328C29.1667 335.224 29.9792 335.672 31.0938 335.672C32.1979 335.672 32.9948 335.24 33.4844 334.375C33.974 333.51 34.2292 332.188 34.25 330.406V325Z" fill="#194496"/>
<path d="M60.7656 339H56.25V321.594L50.8594 323.266V319.594L60.2812 316.219H60.7656V339Z" fill="#194496"/>
<path d="M91.4531 329.594C91.4531 332.74 90.8021 335.146 89.5 336.812C88.1979 338.479 86.2917 339.312 83.7812 339.312C81.3021 339.312 79.4062 338.495 78.0938 336.859C76.7812 335.224 76.1094 332.88 76.0781 329.828V325.641C76.0781 322.464 76.7344 320.052 78.0469 318.406C79.3698 316.76 81.2708 315.938 83.75 315.938C86.2292 315.938 88.125 316.755 89.4375 318.391C90.75 320.016 91.4219 322.354 91.4531 325.406V329.594ZM86.9375 325C86.9375 323.115 86.6771 321.745 86.1562 320.891C85.6458 320.026 84.8438 319.594 83.75 319.594C82.6875 319.594 81.901 320.005 81.3906 320.828C80.8906 321.641 80.625 322.917 80.5938 324.656V330.188C80.5938 332.042 80.8438 333.422 81.3438 334.328C81.8542 335.224 82.6667 335.672 83.7812 335.672C84.8854 335.672 85.6823 335.24 86.1719 334.375C86.6615 333.51 86.9167 332.188 86.9375 330.406V325Z" fill="#194496"/>
<path d="M113.453 339H108.938V321.594L103.547 323.266V319.594L112.969 316.219H113.453V339Z" fill="#194496"/>
<path d="M152.109 329.594C152.109 332.74 151.458 335.146 150.156 336.812C148.854 338.479 146.948 339.312 144.438 339.312C141.958 339.312 140.062 338.495 138.75 336.859C137.438 335.224 136.766 332.88 136.734 329.828V325.641C136.734 322.464 137.391 320.052 138.703 318.406C140.026 316.76 141.927 315.938 144.406 315.938C146.885 315.938 148.781 316.755 150.094 318.391C151.406 320.016 152.078 322.354 152.109 325.406V329.594ZM147.594 325C147.594 323.115 147.333 321.745 146.812 320.891C146.302 320.026 145.5 319.594 144.406 319.594C143.344 319.594 142.557 320.005 142.047 320.828C141.547 321.641 141.281 322.917 141.25 324.656V330.188C141.25 332.042 141.5 333.422 142 334.328C142.51 335.224 143.323 335.672 144.438 335.672C145.542 335.672 146.339 335.24 146.828 334.375C147.318 333.51 147.573 332.188 147.594 330.406V325Z" fill="#194496"/>
<path d="M174.109 339H169.594V321.594L164.203 323.266V319.594L173.625 316.219H174.109V339Z" fill="#194496"/>
<path d="M204.797 329.594C204.797 332.74 204.146 335.146 202.844 336.812C201.542 338.479 199.635 339.312 197.125 339.312C194.646 339.312 192.75 338.495 191.438 336.859C190.125 335.224 189.453 332.88 189.422 329.828V325.641C189.422 322.464 190.078 320.052 191.391 318.406C192.714 316.76 194.615 315.938 197.094 315.938C199.573 315.938 201.469 316.755 202.781 318.391C204.094 320.016 204.766 322.354 204.797 325.406V329.594ZM200.281 325C200.281 323.115 200.021 321.745 199.5 320.891C198.99 320.026 198.188 319.594 197.094 319.594C196.031 319.594 195.245 320.005 194.734 320.828C194.234 321.641 193.969 322.917 193.938 324.656V330.188C193.938 332.042 194.188 333.422 194.688 334.328C195.198 335.224 196.01 335.672 197.125 335.672C198.229 335.672 199.026 335.24 199.516 334.375C200.005 333.51 200.26 332.188 200.281 330.406V325Z" fill="#194496"/>
<path d="M231.141 329.594C231.141 332.74 230.49 335.146 229.188 336.812C227.885 338.479 225.979 339.312 223.469 339.312C220.99 339.312 219.094 338.495 217.781 336.859C216.469 335.224 215.797 332.88 215.766 329.828V325.641C215.766 322.464 216.422 320.052 217.734 318.406C219.057 316.76 220.958 315.938 223.438 315.938C225.917 315.938 227.812 316.755 229.125 318.391C230.438 320.016 231.109 322.354 231.141 325.406V329.594ZM226.625 325C226.625 323.115 226.365 321.745 225.844 320.891C225.333 320.026 224.531 319.594 223.438 319.594C222.375 319.594 221.589 320.005 221.078 320.828C220.578 321.641 220.312 322.917 220.281 324.656V330.188C220.281 332.042 220.531 333.422 221.031 334.328C221.542 335.224 222.354 335.672 223.469 335.672C224.573 335.672 225.37 335.24 225.859 334.375C226.349 333.51 226.604 332.188 226.625 330.406V325Z" fill="#194496"/>
<path d="M253.141 339H248.625V321.594L243.234 323.266V319.594L252.656 316.219H253.141V339Z" fill="#194496"/>
<path d="M16.0469 384H11.5312V366.594L6.14062 368.266V364.594L15.5625 361.219H16.0469V384Z" fill="#194496"/>
<path d="M42.3906 384H37.875V366.594L32.4844 368.266V364.594L41.9062 361.219H42.3906V384Z" fill="#194496"/>
<path d="M73.0781 374.594C73.0781 377.74 72.4271 380.146 71.125 381.812C69.8229 383.479 67.9167 384.312 65.4062 384.312C62.9271 384.312 61.0312 383.495 59.7188 381.859C58.4062 380.224 57.7344 377.88 57.7031 374.828V370.641C57.7031 367.464 58.3594 365.052 59.6719 363.406C60.9948 361.76 62.8958 360.938 65.375 360.938C67.8542 360.938 69.75 361.755 71.0625 363.391C72.375 365.016 73.0469 367.354 73.0781 370.406V374.594ZM68.5625 370C68.5625 368.115 68.3021 366.745 67.7812 365.891C67.2708 365.026 66.4688 364.594 65.375 364.594C64.3125 364.594 63.526 365.005 63.0156 365.828C62.5156 366.641 62.25 367.917 62.2188 369.656V375.188C62.2188 377.042 62.4688 378.422 62.9688 379.328C63.4792 380.224 64.2917 380.672 65.4062 380.672C66.5104 380.672 67.3073 380.24 67.7969 379.375C68.2865 378.51 68.5417 377.188 68.5625 375.406V370Z" fill="#194496"/>
<path d="M95.0781 384H90.5625V366.594L85.1719 368.266V364.594L94.5938 361.219H95.0781V384Z" fill="#194496"/>
<path d="M125.766 374.594C125.766 377.74 125.115 380.146 123.812 381.812C122.51 383.479 120.604 384.312 118.094 384.312C115.615 384.312 113.719 383.495 112.406 381.859C111.094 380.224 110.422 377.88 110.391 374.828V370.641C110.391 367.464 111.047 365.052 112.359 363.406C113.682 361.76 115.583 360.938 118.062 360.938C120.542 360.938 122.438 361.755 123.75 363.391C125.062 365.016 125.734 367.354 125.766 370.406V374.594ZM121.25 370C121.25 368.115 120.99 366.745 120.469 365.891C119.958 365.026 119.156 364.594 118.062 364.594C117 364.594 116.214 365.005 115.703 365.828C115.203 366.641 114.938 367.917 114.906 369.656V375.188C114.906 377.042 115.156 378.422 115.656 379.328C116.167 380.224 116.979 380.672 118.094 380.672C119.198 380.672 119.995 380.24 120.484 379.375C120.974 378.51 121.229 377.188 121.25 375.406V370Z" fill="#194496"/>
<path d="M152.109 374.594C152.109 377.74 151.458 380.146 150.156 381.812C148.854 383.479 146.948 384.312 144.438 384.312C141.958 384.312 140.062 383.495 138.75 381.859C137.438 380.224 136.766 377.88 136.734 374.828V370.641C136.734 367.464 137.391 365.052 138.703 363.406C140.026 361.76 141.927 360.938 144.406 360.938C146.885 360.938 148.781 361.755 150.094 363.391C151.406 365.016 152.078 367.354 152.109 370.406V374.594ZM147.594 370C147.594 368.115 147.333 366.745 146.812 365.891C146.302 365.026 145.5 364.594 144.406 364.594C143.344 364.594 142.557 365.005 142.047 365.828C141.547 366.641 141.281 367.917 141.25 369.656V375.188C141.25 377.042 141.5 378.422 142 379.328C142.51 380.224 143.323 380.672 144.438 380.672C145.542 380.672 146.339 380.24 146.828 379.375C147.318 378.51 147.573 377.188 147.594 375.406V370Z" fill="#194496"/>
<path d="M174.109 384H169.594V366.594L164.203 368.266V364.594L173.625 361.219H174.109V384Z" fill="#194496"/>
<path d="M204.797 374.594C204.797 377.74 204.146 380.146 202.844 381.812C201.542 383.479 199.635 384.312 197.125 384.312C194.646 384.312 192.75 383.495 191.438 381.859C190.125 380.224 189.453 377.88 189.422 374.828V370.641C189.422 367.464 190.078 365.052 191.391 363.406C192.714 361.76 194.615 360.938 197.094 360.938C199.573 360.938 201.469 361.755 202.781 363.391C204.094 365.016 204.766 367.354 204.797 370.406V374.594ZM200.281 370C200.281 368.115 200.021 366.745 199.5 365.891C198.99 365.026 198.188 364.594 197.094 364.594C196.031 364.594 195.245 365.005 194.734 365.828C194.234 366.641 193.969 367.917 193.938 369.656V375.188C193.938 377.042 194.188 378.422 194.688 379.328C195.198 380.224 196.01 380.672 197.125 380.672C198.229 380.672 199.026 380.24 199.516 379.375C200.005 378.51 200.26 377.188 200.281 375.406V370Z" fill="#194496"/>
<path d="M231.141 374.594C231.141 377.74 230.49 380.146 229.188 381.812C227.885 383.479 225.979 384.312 223.469 384.312C220.99 384.312 219.094 383.495 217.781 381.859C216.469 380.224 215.797 377.88 215.766 374.828V370.641C215.766 367.464 216.422 365.052 217.734 363.406C219.057 361.76 220.958 360.938 223.438 360.938C225.917 360.938 227.812 361.755 229.125 363.391C230.438 365.016 231.109 367.354 231.141 370.406V374.594ZM226.625 370C226.625 368.115 226.365 366.745 225.844 365.891C225.333 365.026 224.531 364.594 223.438 364.594C222.375 364.594 221.589 365.005 221.078 365.828C220.578 366.641 220.312 367.917 220.281 369.656V375.188C220.281 377.042 220.531 378.422 221.031 379.328C221.542 380.224 222.354 380.672 223.469 380.672C224.573 380.672 225.37 380.24 225.859 379.375C226.349 378.51 226.604 377.188 226.625 375.406V370Z" fill="#194496"/>
<path d="M253.141 384H248.625V366.594L243.234 368.266V364.594L252.656 361.219H253.141V384Z" fill="#194496"/>
<path d="M8.07812 429H3.5625V411.594L-1.82812 413.266V409.594L7.59375 406.219H8.07812V429Z" fill="#194496"/>
<path d="M34.4219 429H29.9062V411.594L24.5156 413.266V409.594L33.9375 406.219H34.4219V429Z" fill="#194496"/>
<path d="M65.1094 419.594C65.1094 422.74 64.4583 425.146 63.1562 426.812C61.8542 428.479 59.9479 429.312 57.4375 429.312C54.9583 429.312 53.0625 428.495 51.75 426.859C50.4375 425.224 49.7656 422.88 49.7344 419.828V415.641C49.7344 412.464 50.3906 410.052 51.7031 408.406C53.026 406.76 54.9271 405.938 57.4062 405.938C59.8854 405.938 61.7812 406.755 63.0938 408.391C64.4062 410.016 65.0781 412.354 65.1094 415.406V419.594ZM60.5938 415C60.5938 413.115 60.3333 411.745 59.8125 410.891C59.3021 410.026 58.5 409.594 57.4062 409.594C56.3438 409.594 55.5573 410.005 55.0469 410.828C54.5469 411.641 54.2812 412.917 54.25 414.656V420.188C54.25 422.042 54.5 423.422 55 424.328C55.5104 425.224 56.3229 425.672 57.4375 425.672C58.5417 425.672 59.3385 425.24 59.8281 424.375C60.3177 423.51 60.5729 422.188 60.5938 420.406V415Z" fill="#194496"/>
<path d="M87.1094 429H82.5938V411.594L77.2031 413.266V409.594L86.625 406.219H87.1094V429Z" fill="#194496"/>
<path d="M117.797 419.594C117.797 422.74 117.146 425.146 115.844 426.812C114.542 428.479 112.635 429.312 110.125 429.312C107.646 429.312 105.75 428.495 104.438 426.859C103.125 425.224 102.453 422.88 102.422 419.828V415.641C102.422 412.464 103.078 410.052 104.391 408.406C105.714 406.76 107.615 405.938 110.094 405.938C112.573 405.938 114.469 406.755 115.781 408.391C117.094 410.016 117.766 412.354 117.797 415.406V419.594ZM113.281 415C113.281 413.115 113.021 411.745 112.5 410.891C111.99 410.026 111.188 409.594 110.094 409.594C109.031 409.594 108.245 410.005 107.734 410.828C107.234 411.641 106.969 412.917 106.938 414.656V420.188C106.938 422.042 107.188 423.422 107.688 424.328C108.198 425.224 109.01 425.672 110.125 425.672C111.229 425.672 112.026 425.24 112.516 424.375C113.005 423.51 113.26 422.188 113.281 420.406V415Z" fill="#194496"/>
<path d="M139.797 429H135.281V411.594L129.891 413.266V409.594L139.312 406.219H139.797V429Z" fill="#194496"/>
<path d="M178.453 419.594C178.453 422.74 177.802 425.146 176.5 426.812C175.198 428.479 173.292 429.312 170.781 429.312C168.302 429.312 166.406 428.495 165.094 426.859C163.781 425.224 163.109 422.88 163.078 419.828V415.641C163.078 412.464 163.734 410.052 165.047 408.406C166.37 406.76 168.271 405.938 170.75 405.938C173.229 405.938 175.125 406.755 176.438 408.391C177.75 410.016 178.422 412.354 178.453 415.406V419.594ZM173.938 415C173.938 413.115 173.677 411.745 173.156 410.891C172.646 410.026 171.844 409.594 170.75 409.594C169.688 409.594 168.901 410.005 168.391 410.828C167.891 411.641 167.625 412.917 167.594 414.656V420.188C167.594 422.042 167.844 423.422 168.344 424.328C168.854 425.224 169.667 425.672 170.781 425.672C171.885 425.672 172.682 425.24 173.172 424.375C173.661 423.51 173.917 422.188 173.938 420.406V415Z" fill="#194496"/>
<path d="M204.797 419.594C204.797 422.74 204.146 425.146 202.844 426.812C201.542 428.479 199.635 429.312 197.125 429.312C194.646 429.312 192.75 428.495 191.438 426.859C190.125 425.224 189.453 422.88 189.422 419.828V415.641C189.422 412.464 190.078 410.052 191.391 408.406C192.714 406.76 194.615 405.938 197.094 405.938C199.573 405.938 201.469 406.755 202.781 408.391C204.094 410.016 204.766 412.354 204.797 415.406V419.594ZM200.281 415C200.281 413.115 200.021 411.745 199.5 410.891C198.99 410.026 198.188 409.594 197.094 409.594C196.031 409.594 195.245 410.005 194.734 410.828C194.234 411.641 193.969 412.917 193.938 414.656V420.188C193.938 422.042 194.188 423.422 194.688 424.328C195.198 425.224 196.01 425.672 197.125 425.672C198.229 425.672 199.026 425.24 199.516 424.375C200.005 423.51 200.26 422.188 200.281 420.406V415Z" fill="#194496"/>
<path d="M231.141 419.594C231.141 422.74 230.49 425.146 229.188 426.812C227.885 428.479 225.979 429.312 223.469 429.312C220.99 429.312 219.094 428.495 217.781 426.859C216.469 425.224 215.797 422.88 215.766 419.828V415.641C215.766 412.464 216.422 410.052 217.734 408.406C219.057 406.76 220.958 405.938 223.438 405.938C225.917 405.938 227.812 406.755 229.125 408.391C230.438 410.016 231.109 412.354 231.141 415.406V419.594ZM226.625 415C226.625 413.115 226.365 411.745 225.844 410.891C225.333 410.026 224.531 409.594 223.438 409.594C222.375 409.594 221.589 410.005 221.078 410.828C220.578 411.641 220.312 412.917 220.281 414.656V420.188C220.281 422.042 220.531 423.422 221.031 424.328C221.542 425.224 222.354 425.672 223.469 425.672C224.573 425.672 225.37 425.24 225.859 424.375C226.349 423.51 226.604 422.188 226.625 420.406V415Z" fill="#194496"/>
<path d="M257.484 419.594C257.484 422.74 256.833 425.146 255.531 426.812C254.229 428.479 252.323 429.312 249.812 429.312C247.333 429.312 245.438 428.495 244.125 426.859C242.812 425.224 242.141 422.88 242.109 419.828V415.641C242.109 412.464 242.766 410.052 244.078 408.406C245.401 406.76 247.302 405.938 249.781 405.938C252.26 405.938 254.156 406.755 255.469 408.391C256.781 410.016 257.453 412.354 257.484 415.406V419.594ZM252.969 415C252.969 413.115 252.708 411.745 252.188 410.891C251.677 410.026 250.875 409.594 249.781 409.594C248.719 409.594 247.932 410.005 247.422 410.828C246.922 411.641 246.656 412.917 246.625 414.656V420.188C246.625 422.042 246.875 423.422 247.375 424.328C247.885 425.224 248.698 425.672 249.812 425.672C250.917 425.672 251.714 425.24 252.203 424.375C252.693 423.51 252.948 422.188 252.969 420.406V415Z" fill="#194496"/>
<path d="M16.0469 474H11.5312V456.594L6.14062 458.266V454.594L15.5625 451.219H16.0469V474Z" fill="#194496"/>
<path d="M42.3906 474H37.875V456.594L32.4844 458.266V454.594L41.9062 451.219H42.3906V474Z" fill="#194496"/>
<path d="M68.7344 474H64.2188V456.594L58.8281 458.266V454.594L68.25 451.219H68.7344V474Z" fill="#194496"/>
<path d="M99.4219 464.594C99.4219 467.74 98.7708 470.146 97.4688 471.812C96.1667 473.479 94.2604 474.312 91.75 474.312C89.2708 474.312 87.375 473.495 86.0625 471.859C84.75 470.224 84.0781 467.88 84.0469 464.828V460.641C84.0469 457.464 84.7031 455.052 86.0156 453.406C87.3385 451.76 89.2396 450.938 91.7188 450.938C94.1979 450.938 96.0938 451.755 97.4062 453.391C98.7188 455.016 99.3906 457.354 99.4219 460.406V464.594ZM94.9062 460C94.9062 458.115 94.6458 456.745 94.125 455.891C93.6146 455.026 92.8125 454.594 91.7188 454.594C90.6562 454.594 89.8698 455.005 89.3594 455.828C88.8594 456.641 88.5938 457.917 88.5625 459.656V465.188C88.5625 467.042 88.8125 468.422 89.3125 469.328C89.8229 470.224 90.6354 470.672 91.75 470.672C92.8542 470.672 93.651 470.24 94.1406 469.375C94.6302 468.51 94.8854 467.188 94.9062 465.406V460Z" fill="#194496"/>
<path d="M121.422 474H116.906V456.594L111.516 458.266V454.594L120.938 451.219H121.422V474Z" fill="#194496"/>
<path d="M152.109 464.594C152.109 467.74 151.458 470.146 150.156 471.812C148.854 473.479 146.948 474.312 144.438 474.312C141.958 474.312 140.062 473.495 138.75 471.859C137.438 470.224 136.766 467.88 136.734 464.828V460.641C136.734 457.464 137.391 455.052 138.703 453.406C140.026 451.76 141.927 450.938 144.406 450.938C146.885 450.938 148.781 451.755 150.094 453.391C151.406 455.016 152.078 457.354 152.109 460.406V464.594ZM147.594 460C147.594 458.115 147.333 456.745 146.812 455.891C146.302 455.026 145.5 454.594 144.406 454.594C143.344 454.594 142.557 455.005 142.047 455.828C141.547 456.641 141.281 457.917 141.25 459.656V465.188C141.25 467.042 141.5 468.422 142 469.328C142.51 470.224 143.323 470.672 144.438 470.672C145.542 470.672 146.339 470.24 146.828 469.375C147.318 468.51 147.573 467.188 147.594 465.406V460Z" fill="#194496"/>
<path d="M174.109 474H169.594V456.594L164.203 458.266V454.594L173.625 451.219H174.109V474Z" fill="#194496"/>
<path d="M204.797 464.594C204.797 467.74 204.146 470.146 202.844 471.812C201.542 473.479 199.635 474.312 197.125 474.312C194.646 474.312 192.75 473.495 191.438 471.859C190.125 470.224 189.453 467.88 189.422 464.828V460.641C189.422 457.464 190.078 455.052 191.391 453.406C192.714 451.76 194.615 450.938 197.094 450.938C199.573 450.938 201.469 451.755 202.781 453.391C204.094 455.016 204.766 457.354 204.797 460.406V464.594ZM200.281 460C200.281 458.115 200.021 456.745 199.5 455.891C198.99 455.026 198.188 454.594 197.094 454.594C196.031 454.594 195.245 455.005 194.734 455.828C194.234 456.641 193.969 457.917 193.938 459.656V465.188C193.938 467.042 194.188 468.422 194.688 469.328C195.198 470.224 196.01 470.672 197.125 470.672C198.229 470.672 199.026 470.24 199.516 469.375C200.005 468.51 200.26 467.188 200.281 465.406V460Z" fill="#194496"/>
<path d="M226.797 474H222.281V456.594L216.891 458.266V454.594L226.312 451.219H226.797V474Z" fill="#194496"/>
<path d="M257.484 464.594C257.484 467.74 256.833 470.146 255.531 471.812C254.229 473.479 252.323 474.312 249.812 474.312C247.333 474.312 245.438 473.495 244.125 471.859C242.812 470.224 242.141 467.88 242.109 464.828V460.641C242.109 457.464 242.766 455.052 244.078 453.406C245.401 451.76 247.302 450.938 249.781 450.938C252.26 450.938 254.156 451.755 255.469 453.391C256.781 455.016 257.453 457.354 257.484 460.406V464.594ZM252.969 460C252.969 458.115 252.708 456.745 252.188 455.891C251.677 455.026 250.875 454.594 249.781 454.594C248.719 454.594 247.932 455.005 247.422 455.828C246.922 456.641 246.656 457.917 246.625 459.656V465.188C246.625 467.042 246.875 468.422 247.375 469.328C247.885 470.224 248.698 470.672 249.812 470.672C250.917 470.672 251.714 470.24 252.203 469.375C252.693 468.51 252.948 467.188 252.969 465.406V460Z" fill="#194496"/>
<path d="M20.3906 509.594C20.3906 512.74 19.7396 515.146 18.4375 516.812C17.1354 518.479 15.2292 519.312 12.7188 519.312C10.2396 519.312 8.34375 518.495 7.03125 516.859C5.71875 515.224 5.04688 512.88 5.01562 509.828V505.641C5.01562 502.464 5.67188 500.052 6.98438 498.406C8.30729 496.76 10.2083 495.938 12.6875 495.938C15.1667 495.938 17.0625 496.755 18.375 498.391C19.6875 500.016 20.3594 502.354 20.3906 505.406V509.594ZM15.875 505C15.875 503.115 15.6146 501.745 15.0938 500.891C14.5833 500.026 13.7812 499.594 12.6875 499.594C11.625 499.594 10.8385 500.005 10.3281 500.828C9.82812 501.641 9.5625 502.917 9.53125 504.656V510.188C9.53125 512.042 9.78125 513.422 10.2812 514.328C10.7917 515.224 11.6042 515.672 12.7188 515.672C13.8229 515.672 14.6198 515.24 15.1094 514.375C15.599 513.51 15.8542 512.188 15.875 510.406V505Z" fill="#194496"/>
<path d="M42.3906 519H37.875V501.594L32.4844 503.266V499.594L41.9062 496.219H42.3906V519Z" fill="#194496"/>
<path d="M68.7344 519H64.2188V501.594L58.8281 503.266V499.594L68.25 496.219H68.7344V519Z" fill="#194496"/>
<path d="M95.0781 519H90.5625V501.594L85.1719 503.266V499.594L94.5938 496.219H95.0781V519Z" fill="#194496"/>
<path d="M125.766 509.594C125.766 512.74 125.115 515.146 123.812 516.812C122.51 518.479 120.604 519.312 118.094 519.312C115.615 519.312 113.719 518.495 112.406 516.859C111.094 515.224 110.422 512.88 110.391 509.828V505.641C110.391 502.464 111.047 500.052 112.359 498.406C113.682 496.76 115.583 495.938 118.062 495.938C120.542 495.938 122.438 496.755 123.75 498.391C125.062 500.016 125.734 502.354 125.766 505.406V509.594ZM121.25 505C121.25 503.115 120.99 501.745 120.469 500.891C119.958 500.026 119.156 499.594 118.062 499.594C117 499.594 116.214 500.005 115.703 500.828C115.203 501.641 114.938 502.917 114.906 504.656V510.188C114.906 512.042 115.156 513.422 115.656 514.328C116.167 515.224 116.979 515.672 118.094 515.672C119.198 515.672 119.995 515.24 120.484 514.375C120.974 513.51 121.229 512.188 121.25 510.406V505Z" fill="#194496"/>
<path d="M147.766 519H143.25V501.594L137.859 503.266V499.594L147.281 496.219H147.766V519Z" fill="#194496"/>
<path d="M178.453 509.594C178.453 512.74 177.802 515.146 176.5 516.812C175.198 518.479 173.292 519.312 170.781 519.312C168.302 519.312 166.406 518.495 165.094 516.859C163.781 515.224 163.109 512.88 163.078 509.828V505.641C163.078 502.464 163.734 500.052 165.047 498.406C166.37 496.76 168.271 495.938 170.75 495.938C173.229 495.938 175.125 496.755 176.438 498.391C177.75 500.016 178.422 502.354 178.453 505.406V509.594ZM173.938 505C173.938 503.115 173.677 501.745 173.156 500.891C172.646 500.026 171.844 499.594 170.75 499.594C169.688 499.594 168.901 500.005 168.391 500.828C167.891 501.641 167.625 502.917 167.594 504.656V510.188C167.594 512.042 167.844 513.422 168.344 514.328C168.854 515.224 169.667 515.672 170.781 515.672C171.885 515.672 172.682 515.24 173.172 514.375C173.661 513.51 173.917 512.188 173.938 510.406V505Z" fill="#194496"/>
<path d="M204.797 509.594C204.797 512.74 204.146 515.146 202.844 516.812C201.542 518.479 199.635 519.312 197.125 519.312C194.646 519.312 192.75 518.495 191.438 516.859C190.125 515.224 189.453 512.88 189.422 509.828V505.641C189.422 502.464 190.078 500.052 191.391 498.406C192.714 496.76 194.615 495.938 197.094 495.938C199.573 495.938 201.469 496.755 202.781 498.391C204.094 500.016 204.766 502.354 204.797 505.406V509.594ZM200.281 505C200.281 503.115 200.021 501.745 199.5 500.891C198.99 500.026 198.188 499.594 197.094 499.594C196.031 499.594 195.245 500.005 194.734 500.828C194.234 501.641 193.969 502.917 193.938 504.656V510.188C193.938 512.042 194.188 513.422 194.688 514.328C195.198 515.224 196.01 515.672 197.125 515.672C198.229 515.672 199.026 515.24 199.516 514.375C200.005 513.51 200.26 512.188 200.281 510.406V505Z" fill="#194496"/>
<path d="M231.141 509.594C231.141 512.74 230.49 515.146 229.188 516.812C227.885 518.479 225.979 519.312 223.469 519.312C220.99 519.312 219.094 518.495 217.781 516.859C216.469 515.224 215.797 512.88 215.766 509.828V505.641C215.766 502.464 216.422 500.052 217.734 498.406C219.057 496.76 220.958 495.938 223.438 495.938C225.917 495.938 227.812 496.755 229.125 498.391C230.438 500.016 231.109 502.354 231.141 505.406V509.594ZM226.625 505C226.625 503.115 226.365 501.745 225.844 500.891C225.333 500.026 224.531 499.594 223.438 499.594C222.375 499.594 221.589 500.005 221.078 500.828C220.578 501.641 220.312 502.917 220.281 504.656V510.188C220.281 512.042 220.531 513.422 221.031 514.328C221.542 515.224 222.354 515.672 223.469 515.672C224.573 515.672 225.37 515.24 225.859 514.375C226.349 513.51 226.604 512.188 226.625 510.406V505Z" fill="#194496"/>
<path d="M253.141 519H248.625V501.594L243.234 503.266V499.594L252.656 496.219H253.141V519Z" fill="#194496"/>
</svg>
