<svg width="20" height="20" viewBox="0 0 20 20" fill="none" xmlns="http://www.w3.org/2000/svg">
<g clip-path="url(#clip0_472_225)">
<path d="M5.94889 9.5686H4.80273V10.339H5.94889V9.5686Z" fill="black" stroke="black" stroke-width="0.5"/>
<path d="M5.94889 12.8092H4.80273V13.5796H5.94889V12.8092Z" fill="black" stroke="black" stroke-width="0.5"/>
<path d="M5.94889 16.0522H4.80273V16.8227H5.94889V16.0522Z" fill="black" stroke="black" stroke-width="0.5"/>
<path d="M10.529 9.5686H9.38281V10.339H10.529V9.5686Z" fill="black" stroke="black" stroke-width="0.5"/>
<path d="M10.529 12.8092H9.38281V13.5796H10.529V12.8092Z" fill="black" stroke="black" stroke-width="0.5"/>
<path d="M10.529 16.0522H9.38281V16.8227H10.529V16.0522Z" fill="black" stroke="black" stroke-width="0.5"/>
<path d="M15.1032 9.5686H13.957V10.339H15.1032V9.5686Z" fill="black" stroke="black" stroke-width="0.5"/>
<path d="M15.1032 12.8092H13.957V13.5796H15.1032V12.8092Z" fill="black" stroke="black" stroke-width="0.5"/>
<path d="M15.1032 16.0522H13.957V16.8227H15.1032V16.0522Z" fill="black" stroke="black" stroke-width="0.5"/>
<path d="M17.0474 2.32017V1.59715C17.0474 1.23123 16.7495 0.93335 16.3836 0.93335H15.8345C15.4685 0.93335 15.1707 1.23123 15.1707 1.59715V2.30581H10.894V1.59715C10.894 1.23123 10.5961 0.93335 10.2302 0.93335H9.68133C9.31541 0.93335 9.01753 1.23123 9.01753 1.59715V2.30581H4.74088V1.59715C4.74088 1.23123 4.443 0.93335 4.07708 0.93335H3.52794C3.16202 0.93335 2.86414 1.23123 2.86414 1.59715V2.33303C1.94203 2.48272 1.25 3.27505 1.25 4.23522V17.8767C1.25 18.9404 2.11566 19.8058 3.17916 19.8058H16.8208C17.8846 19.8058 18.75 18.9401 18.75 17.8767V4.23522C18.7503 3.24808 18.0045 2.43282 17.0474 2.32017ZM15.6749 1.59715C15.6749 1.50895 15.7465 1.43737 15.8347 1.43737H16.3839C16.4721 1.43737 16.5436 1.50895 16.5436 1.59715V3.51849C16.5436 3.6067 16.4721 3.67827 16.3839 3.67827H15.8347C15.7465 3.67827 15.6749 3.6067 15.6749 3.51849V1.59715ZM9.52181 1.59715C9.52181 1.50895 9.59338 1.43737 9.68158 1.43737H10.2305C10.3187 1.43737 10.3902 1.50895 10.3902 1.59715V3.51849C10.3902 3.6067 10.3187 3.67827 10.2305 3.67827H9.68158C9.59338 3.67827 9.52181 3.6067 9.52181 3.51849V1.59715ZM3.36842 1.59715C3.36842 1.50895 3.43999 1.43737 3.52819 1.43737H4.07733C4.16553 1.43737 4.2371 1.50895 4.2371 1.59715V3.51849C4.2371 3.6067 4.16553 3.67827 4.07733 3.67827H3.52819C3.43999 3.67827 3.36842 3.6067 3.36842 3.51849V1.59715ZM2.86439 2.84612V3.51875C2.86439 3.88467 3.16227 4.18255 3.52819 4.18255H4.07733C4.44325 4.18255 4.74113 3.88467 4.74113 3.51875V2.80983H9.01803V3.51875C9.01803 3.88467 9.31591 4.18255 9.68183 4.18255H10.2307C10.5966 4.18255 10.8945 3.88467 10.8945 3.51875V2.80983H15.1714V3.51875C15.1714 3.88467 15.4693 4.18255 15.8352 4.18255H16.3844C16.7503 4.18255 17.0482 3.88467 17.0482 3.51875V2.82949C17.7266 2.93861 18.247 3.52631 18.247 4.23522V6.68755H1.75402V4.23522C1.75402 3.55478 2.22453 2.98902 2.86439 2.84612ZM16.8208 19.3018H3.17941C2.39363 19.3018 1.75428 18.6624 1.75428 17.8767V7.19183H18.2462V17.8767C18.2462 18.6624 17.6069 19.3018 16.8208 19.3018Z" fill="black" stroke="black" stroke-width="0.5"/>
</g>
<defs>
<clipPath id="clip0_472_225">
<rect width="20" height="20" fill="white"/>
</clipPath>
</defs>
</svg>
