<svg width="249" height="295" viewBox="0 0 249 295" fill="none" xmlns="http://www.w3.org/2000/svg">
<path d="M15.8594 14.5938C15.8594 17.7396 15.2083 20.1458 13.9062 21.8125C12.6042 23.4792 10.6979 24.3125 8.1875 24.3125C5.70833 24.3125 3.8125 23.4948 2.5 21.8594C1.1875 20.224 0.515625 17.8802 0.484375 14.8281V10.6406C0.484375 7.46354 1.14062 5.05208 2.45312 3.40625C3.77604 1.76042 5.67708 0.9375 8.15625 0.9375C10.6354 0.9375 12.5312 1.75521 13.8438 3.39062C15.1562 5.01562 15.8281 7.35417 15.8594 10.4062V14.5938ZM11.3438 10C11.3438 8.11458 11.0833 6.74479 10.5625 5.89062C10.0521 5.02604 9.25 4.59375 8.15625 4.59375C7.09375 4.59375 6.30729 5.00521 5.79688 5.82812C5.29688 6.64062 5.03125 7.91667 5 9.65625V15.1875C5 17.0417 5.25 18.4219 5.75 19.3281C6.26042 20.224 7.07292 20.6719 8.1875 20.6719C9.29167 20.6719 10.0885 20.2396 10.5781 19.375C11.0677 18.5104 11.3229 17.1875 11.3438 15.4062V10Z" fill="#194496"/>
<path d="M37.8594 24H33.3438V6.59375L27.9531 8.26562V4.59375L37.375 1.21875H37.8594V24Z" fill="#194496"/>
<path d="M68.5469 14.5938C68.5469 17.7396 67.8958 20.1458 66.5938 21.8125C65.2917 23.4792 63.3854 24.3125 60.875 24.3125C58.3958 24.3125 56.5 23.4948 55.1875 21.8594C53.875 20.224 53.2031 17.8802 53.1719 14.8281V10.6406C53.1719 7.46354 53.8281 5.05208 55.1406 3.40625C56.4635 1.76042 58.3646 0.9375 60.8438 0.9375C63.3229 0.9375 65.2188 1.75521 66.5312 3.39062C67.8438 5.01562 68.5156 7.35417 68.5469 10.4062V14.5938ZM64.0312 10C64.0312 8.11458 63.7708 6.74479 63.25 5.89062C62.7396 5.02604 61.9375 4.59375 60.8438 4.59375C59.7812 4.59375 58.9948 5.00521 58.4844 5.82812C57.9844 6.64062 57.7188 7.91667 57.6875 9.65625V15.1875C57.6875 17.0417 57.9375 18.4219 58.4375 19.3281C58.9479 20.224 59.7604 20.6719 60.875 20.6719C61.9792 20.6719 62.776 20.2396 63.2656 19.375C63.7552 18.5104 64.0104 17.1875 64.0312 15.4062V10Z" fill="#194496"/>
<path d="M94.8906 14.5938C94.8906 17.7396 94.2396 20.1458 92.9375 21.8125C91.6354 23.4792 89.7292 24.3125 87.2188 24.3125C84.7396 24.3125 82.8438 23.4948 81.5312 21.8594C80.2188 20.224 79.5469 17.8802 79.5156 14.8281V10.6406C79.5156 7.46354 80.1719 5.05208 81.4844 3.40625C82.8073 1.76042 84.7083 0.9375 87.1875 0.9375C89.6667 0.9375 91.5625 1.75521 92.875 3.39062C94.1875 5.01562 94.8594 7.35417 94.8906 10.4062V14.5938ZM90.375 10C90.375 8.11458 90.1146 6.74479 89.5938 5.89062C89.0833 5.02604 88.2812 4.59375 87.1875 4.59375C86.125 4.59375 85.3385 5.00521 84.8281 5.82812C84.3281 6.64062 84.0625 7.91667 84.0312 9.65625V15.1875C84.0312 17.0417 84.2812 18.4219 84.7812 19.3281C85.2917 20.224 86.1042 20.6719 87.2188 20.6719C88.3229 20.6719 89.1198 20.2396 89.6094 19.375C90.099 18.5104 90.3542 17.1875 90.375 15.4062V10Z" fill="#194496"/>
<path d="M116.891 24H112.375V6.59375L106.984 8.26562V4.59375L116.406 1.21875H116.891V24Z" fill="#194496"/>
<path d="M143.234 24H138.719V6.59375L133.328 8.26562V4.59375L142.75 1.21875H143.234V24Z" fill="#194496"/>
<path d="M169.578 24H165.062V6.59375L159.672 8.26562V4.59375L169.094 1.21875H169.578V24Z" fill="#194496"/>
<path d="M200.266 14.5938C200.266 17.7396 199.615 20.1458 198.312 21.8125C197.01 23.4792 195.104 24.3125 192.594 24.3125C190.115 24.3125 188.219 23.4948 186.906 21.8594C185.594 20.224 184.922 17.8802 184.891 14.8281V10.6406C184.891 7.46354 185.547 5.05208 186.859 3.40625C188.182 1.76042 190.083 0.9375 192.562 0.9375C195.042 0.9375 196.938 1.75521 198.25 3.39062C199.562 5.01562 200.234 7.35417 200.266 10.4062V14.5938ZM195.75 10C195.75 8.11458 195.49 6.74479 194.969 5.89062C194.458 5.02604 193.656 4.59375 192.562 4.59375C191.5 4.59375 190.714 5.00521 190.203 5.82812C189.703 6.64062 189.438 7.91667 189.406 9.65625V15.1875C189.406 17.0417 189.656 18.4219 190.156 19.3281C190.667 20.224 191.479 20.6719 192.594 20.6719C193.698 20.6719 194.495 20.2396 194.984 19.375C195.474 18.5104 195.729 17.1875 195.75 15.4062V10Z" fill="#194496"/>
<path d="M222.266 24H217.75V6.59375L212.359 8.26562V4.59375L221.781 1.21875H222.266V24Z" fill="#194496"/>
<path d="M252.953 14.5938C252.953 17.7396 252.302 20.1458 251 21.8125C249.698 23.4792 247.792 24.3125 245.281 24.3125C242.802 24.3125 240.906 23.4948 239.594 21.8594C238.281 20.224 237.609 17.8802 237.578 14.8281V10.6406C237.578 7.46354 238.234 5.05208 239.547 3.40625C240.87 1.76042 242.771 0.9375 245.25 0.9375C247.729 0.9375 249.625 1.75521 250.938 3.39062C252.25 5.01562 252.922 7.35417 252.953 10.4062V14.5938ZM248.438 10C248.438 8.11458 248.177 6.74479 247.656 5.89062C247.146 5.02604 246.344 4.59375 245.25 4.59375C244.188 4.59375 243.401 5.00521 242.891 5.82812C242.391 6.64062 242.125 7.91667 242.094 9.65625V15.1875C242.094 17.0417 242.344 18.4219 242.844 19.3281C243.354 20.224 244.167 20.6719 245.281 20.6719C246.385 20.6719 247.182 20.2396 247.672 19.375C248.161 18.5104 248.417 17.1875 248.438 15.4062V10Z" fill="#194496"/>
<path d="M11.5156 69H7V51.5938L1.60938 53.2656V49.5938L11.0312 46.2188H11.5156V69Z" fill="#194496"/>
<path d="M42.2031 59.5938C42.2031 62.7396 41.5521 65.1458 40.25 66.8125C38.9479 68.4792 37.0417 69.3125 34.5312 69.3125C32.0521 69.3125 30.1562 68.4948 28.8438 66.8594C27.5312 65.224 26.8594 62.8802 26.8281 59.8281V55.6406C26.8281 52.4635 27.4844 50.0521 28.7969 48.4062C30.1198 46.7604 32.0208 45.9375 34.5 45.9375C36.9792 45.9375 38.875 46.7552 40.1875 48.3906C41.5 50.0156 42.1719 52.3542 42.2031 55.4062V59.5938ZM37.6875 55C37.6875 53.1146 37.4271 51.7448 36.9062 50.8906C36.3958 50.026 35.5938 49.5938 34.5 49.5938C33.4375 49.5938 32.651 50.0052 32.1406 50.8281C31.6406 51.6406 31.375 52.9167 31.3438 54.6562V60.1875C31.3438 62.0417 31.5938 63.4219 32.0938 64.3281C32.6042 65.224 33.4167 65.6719 34.5312 65.6719C35.6354 65.6719 36.4323 65.2396 36.9219 64.375C37.4115 63.5104 37.6667 62.1875 37.6875 60.4062V55Z" fill="#194496"/>
<path d="M64.2031 69H59.6875V51.5938L54.2969 53.2656V49.5938L63.7188 46.2188H64.2031V69Z" fill="#194496"/>
<path d="M94.8906 59.5938C94.8906 62.7396 94.2396 65.1458 92.9375 66.8125C91.6354 68.4792 89.7292 69.3125 87.2188 69.3125C84.7396 69.3125 82.8438 68.4948 81.5312 66.8594C80.2188 65.224 79.5469 62.8802 79.5156 59.8281V55.6406C79.5156 52.4635 80.1719 50.0521 81.4844 48.4062C82.8073 46.7604 84.7083 45.9375 87.1875 45.9375C89.6667 45.9375 91.5625 46.7552 92.875 48.3906C94.1875 50.0156 94.8594 52.3542 94.8906 55.4062V59.5938ZM90.375 55C90.375 53.1146 90.1146 51.7448 89.5938 50.8906C89.0833 50.026 88.2812 49.5938 87.1875 49.5938C86.125 49.5938 85.3385 50.0052 84.8281 50.8281C84.3281 51.6406 84.0625 52.9167 84.0312 54.6562V60.1875C84.0312 62.0417 84.2812 63.4219 84.7812 64.3281C85.2917 65.224 86.1042 65.6719 87.2188 65.6719C88.3229 65.6719 89.1198 65.2396 89.6094 64.375C90.099 63.5104 90.3542 62.1875 90.375 60.4062V55Z" fill="#194496"/>
<path d="M121.234 59.5938C121.234 62.7396 120.583 65.1458 119.281 66.8125C117.979 68.4792 116.073 69.3125 113.562 69.3125C111.083 69.3125 109.188 68.4948 107.875 66.8594C106.562 65.224 105.891 62.8802 105.859 59.8281V55.6406C105.859 52.4635 106.516 50.0521 107.828 48.4062C109.151 46.7604 111.052 45.9375 113.531 45.9375C116.01 45.9375 117.906 46.7552 119.219 48.3906C120.531 50.0156 121.203 52.3542 121.234 55.4062V59.5938ZM116.719 55C116.719 53.1146 116.458 51.7448 115.938 50.8906C115.427 50.026 114.625 49.5938 113.531 49.5938C112.469 49.5938 111.682 50.0052 111.172 50.8281C110.672 51.6406 110.406 52.9167 110.375 54.6562V60.1875C110.375 62.0417 110.625 63.4219 111.125 64.3281C111.635 65.224 112.448 65.6719 113.562 65.6719C114.667 65.6719 115.464 65.2396 115.953 64.375C116.443 63.5104 116.698 62.1875 116.719 60.4062V55Z" fill="#194496"/>
<path d="M143.234 69H138.719V51.5938L133.328 53.2656V49.5938L142.75 46.2188H143.234V69Z" fill="#194496"/>
<path d="M169.578 69H165.062V51.5938L159.672 53.2656V49.5938L169.094 46.2188H169.578V69Z" fill="#194496"/>
<path d="M195.922 69H191.406V51.5938L186.016 53.2656V49.5938L195.438 46.2188H195.922V69Z" fill="#194496"/>
<path d="M226.609 59.5938C226.609 62.7396 225.958 65.1458 224.656 66.8125C223.354 68.4792 221.448 69.3125 218.938 69.3125C216.458 69.3125 214.562 68.4948 213.25 66.8594C211.938 65.224 211.266 62.8802 211.234 59.8281V55.6406C211.234 52.4635 211.891 50.0521 213.203 48.4062C214.526 46.7604 216.427 45.9375 218.906 45.9375C221.385 45.9375 223.281 46.7552 224.594 48.3906C225.906 50.0156 226.578 52.3542 226.609 55.4062V59.5938ZM222.094 55C222.094 53.1146 221.833 51.7448 221.312 50.8906C220.802 50.026 220 49.5938 218.906 49.5938C217.844 49.5938 217.057 50.0052 216.547 50.8281C216.047 51.6406 215.781 52.9167 215.75 54.6562V60.1875C215.75 62.0417 216 63.4219 216.5 64.3281C217.01 65.224 217.823 65.6719 218.938 65.6719C220.042 65.6719 220.839 65.2396 221.328 64.375C221.818 63.5104 222.073 62.1875 222.094 60.4062V55Z" fill="#194496"/>
<path d="M248.609 69H244.094V51.5938L238.703 53.2656V49.5938L248.125 46.2188H248.609V69Z" fill="#194496"/>
<path d="M15.8594 104.594C15.8594 107.74 15.2083 110.146 13.9062 111.812C12.6042 113.479 10.6979 114.312 8.1875 114.312C5.70833 114.312 3.8125 113.495 2.5 111.859C1.1875 110.224 0.515625 107.88 0.484375 104.828V100.641C0.484375 97.4635 1.14062 95.0521 2.45312 93.4062C3.77604 91.7604 5.67708 90.9375 8.15625 90.9375C10.6354 90.9375 12.5312 91.7552 13.8438 93.3906C15.1562 95.0156 15.8281 97.3542 15.8594 100.406V104.594ZM11.3438 100C11.3438 98.1146 11.0833 96.7448 10.5625 95.8906C10.0521 95.026 9.25 94.5938 8.15625 94.5938C7.09375 94.5938 6.30729 95.0052 5.79688 95.8281C5.29688 96.6406 5.03125 97.9167 5 99.6562V105.188C5 107.042 5.25 108.422 5.75 109.328C6.26042 110.224 7.07292 110.672 8.1875 110.672C9.29167 110.672 10.0885 110.24 10.5781 109.375C11.0677 108.51 11.3229 107.188 11.3438 105.406V100Z" fill="#194496"/>
<path d="M37.8594 114H33.3438V96.5938L27.9531 98.2656V94.5938L37.375 91.2188H37.8594V114Z" fill="#194496"/>
<path d="M68.5469 104.594C68.5469 107.74 67.8958 110.146 66.5938 111.812C65.2917 113.479 63.3854 114.312 60.875 114.312C58.3958 114.312 56.5 113.495 55.1875 111.859C53.875 110.224 53.2031 107.88 53.1719 104.828V100.641C53.1719 97.4635 53.8281 95.0521 55.1406 93.4062C56.4635 91.7604 58.3646 90.9375 60.8438 90.9375C63.3229 90.9375 65.2188 91.7552 66.5312 93.3906C67.8438 95.0156 68.5156 97.3542 68.5469 100.406V104.594ZM64.0312 100C64.0312 98.1146 63.7708 96.7448 63.25 95.8906C62.7396 95.026 61.9375 94.5938 60.8438 94.5938C59.7812 94.5938 58.9948 95.0052 58.4844 95.8281C57.9844 96.6406 57.7188 97.9167 57.6875 99.6562V105.188C57.6875 107.042 57.9375 108.422 58.4375 109.328C58.9479 110.224 59.7604 110.672 60.875 110.672C61.9792 110.672 62.776 110.24 63.2656 109.375C63.7552 108.51 64.0104 107.188 64.0312 105.406V100Z" fill="#194496"/>
<path d="M90.5469 114H86.0312V96.5938L80.6406 98.2656V94.5938L90.0625 91.2188H90.5469V114Z" fill="#194496"/>
<path d="M121.234 104.594C121.234 107.74 120.583 110.146 119.281 111.812C117.979 113.479 116.073 114.312 113.562 114.312C111.083 114.312 109.188 113.495 107.875 111.859C106.562 110.224 105.891 107.88 105.859 104.828V100.641C105.859 97.4635 106.516 95.0521 107.828 93.4062C109.151 91.7604 111.052 90.9375 113.531 90.9375C116.01 90.9375 117.906 91.7552 119.219 93.3906C120.531 95.0156 121.203 97.3542 121.234 100.406V104.594ZM116.719 100C116.719 98.1146 116.458 96.7448 115.938 95.8906C115.427 95.026 114.625 94.5938 113.531 94.5938C112.469 94.5938 111.682 95.0052 111.172 95.8281C110.672 96.6406 110.406 97.9167 110.375 99.6562V105.188C110.375 107.042 110.625 108.422 111.125 109.328C111.635 110.224 112.448 110.672 113.562 110.672C114.667 110.672 115.464 110.24 115.953 109.375C116.443 108.51 116.698 107.188 116.719 105.406V100Z" fill="#194496"/>
<path d="M147.578 104.594C147.578 107.74 146.927 110.146 145.625 111.812C144.323 113.479 142.417 114.312 139.906 114.312C137.427 114.312 135.531 113.495 134.219 111.859C132.906 110.224 132.234 107.88 132.203 104.828V100.641C132.203 97.4635 132.859 95.0521 134.172 93.4062C135.495 91.7604 137.396 90.9375 139.875 90.9375C142.354 90.9375 144.25 91.7552 145.562 93.3906C146.875 95.0156 147.547 97.3542 147.578 100.406V104.594ZM143.062 100C143.062 98.1146 142.802 96.7448 142.281 95.8906C141.771 95.026 140.969 94.5938 139.875 94.5938C138.812 94.5938 138.026 95.0052 137.516 95.8281C137.016 96.6406 136.75 97.9167 136.719 99.6562V105.188C136.719 107.042 136.969 108.422 137.469 109.328C137.979 110.224 138.792 110.672 139.906 110.672C141.01 110.672 141.807 110.24 142.297 109.375C142.786 108.51 143.042 107.188 143.062 105.406V100Z" fill="#194496"/>
<path d="M169.578 114H165.062V96.5938L159.672 98.2656V94.5938L169.094 91.2188H169.578V114Z" fill="#194496"/>
<path d="M195.922 114H191.406V96.5938L186.016 98.2656V94.5938L195.438 91.2188H195.922V114Z" fill="#194496"/>
<path d="M222.266 114H217.75V96.5938L212.359 98.2656V94.5938L221.781 91.2188H222.266V114Z" fill="#194496"/>
<path d="M252.953 104.594C252.953 107.74 252.302 110.146 251 111.812C249.698 113.479 247.792 114.312 245.281 114.312C242.802 114.312 240.906 113.495 239.594 111.859C238.281 110.224 237.609 107.88 237.578 104.828V100.641C237.578 97.4635 238.234 95.0521 239.547 93.4062C240.87 91.7604 242.771 90.9375 245.25 90.9375C247.729 90.9375 249.625 91.7552 250.938 93.3906C252.25 95.0156 252.922 97.3542 252.953 100.406V104.594ZM248.438 100C248.438 98.1146 248.177 96.7448 247.656 95.8906C247.146 95.026 246.344 94.5938 245.25 94.5938C244.188 94.5938 243.401 95.0052 242.891 95.8281C242.391 96.6406 242.125 97.9167 242.094 99.6562V105.188C242.094 107.042 242.344 108.422 242.844 109.328C243.354 110.224 244.167 110.672 245.281 110.672C246.385 110.672 247.182 110.24 247.672 109.375C248.161 108.51 248.417 107.188 248.438 105.406V100Z" fill="#194496"/>
<path d="M11.5156 159H7V141.594L1.60938 143.266V139.594L11.0312 136.219H11.5156V159Z" fill="#194496"/>
<path d="M42.2031 149.594C42.2031 152.74 41.5521 155.146 40.25 156.812C38.9479 158.479 37.0417 159.312 34.5312 159.312C32.0521 159.312 30.1562 158.495 28.8438 156.859C27.5312 155.224 26.8594 152.88 26.8281 149.828V145.641C26.8281 142.464 27.4844 140.052 28.7969 138.406C30.1198 136.76 32.0208 135.938 34.5 135.938C36.9792 135.938 38.875 136.755 40.1875 138.391C41.5 140.016 42.1719 142.354 42.2031 145.406V149.594ZM37.6875 145C37.6875 143.115 37.4271 141.745 36.9062 140.891C36.3958 140.026 35.5938 139.594 34.5 139.594C33.4375 139.594 32.651 140.005 32.1406 140.828C31.6406 141.641 31.375 142.917 31.3438 144.656V150.188C31.3438 152.042 31.5938 153.422 32.0938 154.328C32.6042 155.224 33.4167 155.672 34.5312 155.672C35.6354 155.672 36.4323 155.24 36.9219 154.375C37.4115 153.51 37.6667 152.188 37.6875 150.406V145Z" fill="#194496"/>
<path d="M64.2031 159H59.6875V141.594L54.2969 143.266V139.594L63.7188 136.219H64.2031V159Z" fill="#194496"/>
<path d="M102.859 149.594C102.859 152.74 102.208 155.146 100.906 156.812C99.6042 158.479 97.6979 159.312 95.1875 159.312C92.7083 159.312 90.8125 158.495 89.5 156.859C88.1875 155.224 87.5156 152.88 87.4844 149.828V145.641C87.4844 142.464 88.1406 140.052 89.4531 138.406C90.776 136.76 92.6771 135.938 95.1562 135.938C97.6354 135.938 99.5312 136.755 100.844 138.391C102.156 140.016 102.828 142.354 102.859 145.406V149.594ZM98.3438 145C98.3438 143.115 98.0833 141.745 97.5625 140.891C97.0521 140.026 96.25 139.594 95.1562 139.594C94.0938 139.594 93.3073 140.005 92.7969 140.828C92.2969 141.641 92.0312 142.917 92 144.656V150.188C92 152.042 92.25 153.422 92.75 154.328C93.2604 155.224 94.0729 155.672 95.1875 155.672C96.2917 155.672 97.0885 155.24 97.5781 154.375C98.0677 153.51 98.3229 152.188 98.3438 150.406V145Z" fill="#194496"/>
<path d="M124.859 159H120.344V141.594L114.953 143.266V139.594L124.375 136.219H124.859V159Z" fill="#194496"/>
<path d="M155.547 149.594C155.547 152.74 154.896 155.146 153.594 156.812C152.292 158.479 150.385 159.312 147.875 159.312C145.396 159.312 143.5 158.495 142.188 156.859C140.875 155.224 140.203 152.88 140.172 149.828V145.641C140.172 142.464 140.828 140.052 142.141 138.406C143.464 136.76 145.365 135.938 147.844 135.938C150.323 135.938 152.219 136.755 153.531 138.391C154.844 140.016 155.516 142.354 155.547 145.406V149.594ZM151.031 145C151.031 143.115 150.771 141.745 150.25 140.891C149.74 140.026 148.938 139.594 147.844 139.594C146.781 139.594 145.995 140.005 145.484 140.828C144.984 141.641 144.719 142.917 144.688 144.656V150.188C144.688 152.042 144.938 153.422 145.438 154.328C145.948 155.224 146.76 155.672 147.875 155.672C148.979 155.672 149.776 155.24 150.266 154.375C150.755 153.51 151.01 152.188 151.031 150.406V145Z" fill="#194496"/>
<path d="M181.891 149.594C181.891 152.74 181.24 155.146 179.938 156.812C178.635 158.479 176.729 159.312 174.219 159.312C171.74 159.312 169.844 158.495 168.531 156.859C167.219 155.224 166.547 152.88 166.516 149.828V145.641C166.516 142.464 167.172 140.052 168.484 138.406C169.807 136.76 171.708 135.938 174.188 135.938C176.667 135.938 178.562 136.755 179.875 138.391C181.188 140.016 181.859 142.354 181.891 145.406V149.594ZM177.375 145C177.375 143.115 177.115 141.745 176.594 140.891C176.083 140.026 175.281 139.594 174.188 139.594C173.125 139.594 172.339 140.005 171.828 140.828C171.328 141.641 171.062 142.917 171.031 144.656V150.188C171.031 152.042 171.281 153.422 171.781 154.328C172.292 155.224 173.104 155.672 174.219 155.672C175.323 155.672 176.12 155.24 176.609 154.375C177.099 153.51 177.354 152.188 177.375 150.406V145Z" fill="#194496"/>
<path d="M203.891 159H199.375V141.594L193.984 143.266V139.594L203.406 136.219H203.891V159Z" fill="#194496"/>
<path d="M230.234 159H225.719V141.594L220.328 143.266V139.594L229.75 136.219H230.234V159Z" fill="#194496"/>
<path d="M256.578 159H252.062V141.594L246.672 143.266V139.594L256.094 136.219H256.578V159Z" fill="#194496"/>
<path d="M15.8594 194.594C15.8594 197.74 15.2083 200.146 13.9062 201.812C12.6042 203.479 10.6979 204.312 8.1875 204.312C5.70833 204.312 3.8125 203.495 2.5 201.859C1.1875 200.224 0.515625 197.88 0.484375 194.828V190.641C0.484375 187.464 1.14062 185.052 2.45312 183.406C3.77604 181.76 5.67708 180.938 8.15625 180.938C10.6354 180.938 12.5312 181.755 13.8438 183.391C15.1562 185.016 15.8281 187.354 15.8594 190.406V194.594ZM11.3438 190C11.3438 188.115 11.0833 186.745 10.5625 185.891C10.0521 185.026 9.25 184.594 8.15625 184.594C7.09375 184.594 6.30729 185.005 5.79688 185.828C5.29688 186.641 5.03125 187.917 5 189.656V195.188C5 197.042 5.25 198.422 5.75 199.328C6.26042 200.224 7.07292 200.672 8.1875 200.672C9.29167 200.672 10.0885 200.24 10.5781 199.375C11.0677 198.51 11.3229 197.188 11.3438 195.406V190Z" fill="#194496"/>
<path d="M37.8594 204H33.3438V186.594L27.9531 188.266V184.594L37.375 181.219H37.8594V204Z" fill="#194496"/>
<path d="M68.5469 194.594C68.5469 197.74 67.8958 200.146 66.5938 201.812C65.2917 203.479 63.3854 204.312 60.875 204.312C58.3958 204.312 56.5 203.495 55.1875 201.859C53.875 200.224 53.2031 197.88 53.1719 194.828V190.641C53.1719 187.464 53.8281 185.052 55.1406 183.406C56.4635 181.76 58.3646 180.938 60.8438 180.938C63.3229 180.938 65.2188 181.755 66.5312 183.391C67.8438 185.016 68.5156 187.354 68.5469 190.406V194.594ZM64.0312 190C64.0312 188.115 63.7708 186.745 63.25 185.891C62.7396 185.026 61.9375 184.594 60.8438 184.594C59.7812 184.594 58.9948 185.005 58.4844 185.828C57.9844 186.641 57.7188 187.917 57.6875 189.656V195.188C57.6875 197.042 57.9375 198.422 58.4375 199.328C58.9479 200.224 59.7604 200.672 60.875 200.672C61.9792 200.672 62.776 200.24 63.2656 199.375C63.7552 198.51 64.0104 197.188 64.0312 195.406V190Z" fill="#194496"/>
<path d="M90.5469 204H86.0312V186.594L80.6406 188.266V184.594L90.0625 181.219H90.5469V204Z" fill="#194496"/>
<path d="M116.891 204H112.375V186.594L106.984 188.266V184.594L116.406 181.219H116.891V204Z" fill="#194496"/>
<path d="M147.578 194.594C147.578 197.74 146.927 200.146 145.625 201.812C144.323 203.479 142.417 204.312 139.906 204.312C137.427 204.312 135.531 203.495 134.219 201.859C132.906 200.224 132.234 197.88 132.203 194.828V190.641C132.203 187.464 132.859 185.052 134.172 183.406C135.495 181.76 137.396 180.938 139.875 180.938C142.354 180.938 144.25 181.755 145.562 183.391C146.875 185.016 147.547 187.354 147.578 190.406V194.594ZM143.062 190C143.062 188.115 142.802 186.745 142.281 185.891C141.771 185.026 140.969 184.594 139.875 184.594C138.812 184.594 138.026 185.005 137.516 185.828C137.016 186.641 136.75 187.917 136.719 189.656V195.188C136.719 197.042 136.969 198.422 137.469 199.328C137.979 200.224 138.792 200.672 139.906 200.672C141.01 200.672 141.807 200.24 142.297 199.375C142.786 198.51 143.042 197.188 143.062 195.406V190Z" fill="#194496"/>
<path d="M173.922 194.594C173.922 197.74 173.271 200.146 171.969 201.812C170.667 203.479 168.76 204.312 166.25 204.312C163.771 204.312 161.875 203.495 160.562 201.859C159.25 200.224 158.578 197.88 158.547 194.828V190.641C158.547 187.464 159.203 185.052 160.516 183.406C161.839 181.76 163.74 180.938 166.219 180.938C168.698 180.938 170.594 181.755 171.906 183.391C173.219 185.016 173.891 187.354 173.922 190.406V194.594ZM169.406 190C169.406 188.115 169.146 186.745 168.625 185.891C168.115 185.026 167.312 184.594 166.219 184.594C165.156 184.594 164.37 185.005 163.859 185.828C163.359 186.641 163.094 187.917 163.062 189.656V195.188C163.062 197.042 163.312 198.422 163.812 199.328C164.323 200.224 165.135 200.672 166.25 200.672C167.354 200.672 168.151 200.24 168.641 199.375C169.13 198.51 169.385 197.188 169.406 195.406V190Z" fill="#194496"/>
<path d="M195.922 204H191.406V186.594L186.016 188.266V184.594L195.438 181.219H195.922V204Z" fill="#194496"/>
<path d="M222.266 204H217.75V186.594L212.359 188.266V184.594L221.781 181.219H222.266V204Z" fill="#194496"/>
<path d="M248.609 204H244.094V186.594L238.703 188.266V184.594L248.125 181.219H248.609V204Z" fill="#194496"/>
<path d="M15.8594 239.594C15.8594 242.74 15.2083 245.146 13.9062 246.812C12.6042 248.479 10.6979 249.312 8.1875 249.312C5.70833 249.312 3.8125 248.495 2.5 246.859C1.1875 245.224 0.515625 242.88 0.484375 239.828V235.641C0.484375 232.464 1.14062 230.052 2.45312 228.406C3.77604 226.76 5.67708 225.938 8.15625 225.938C10.6354 225.938 12.5312 226.755 13.8438 228.391C15.1562 230.016 15.8281 232.354 15.8594 235.406V239.594ZM11.3438 235C11.3438 233.115 11.0833 231.745 10.5625 230.891C10.0521 230.026 9.25 229.594 8.15625 229.594C7.09375 229.594 6.30729 230.005 5.79688 230.828C5.29688 231.641 5.03125 232.917 5 234.656V240.188C5 242.042 5.25 243.422 5.75 244.328C6.26042 245.224 7.07292 245.672 8.1875 245.672C9.29167 245.672 10.0885 245.24 10.5781 244.375C11.0677 243.51 11.3229 242.188 11.3438 240.406V235Z" fill="#194496"/>
<path d="M37.8594 249H33.3438V231.594L27.9531 233.266V229.594L37.375 226.219H37.8594V249Z" fill="#194496"/>
<path d="M68.5469 239.594C68.5469 242.74 67.8958 245.146 66.5938 246.812C65.2917 248.479 63.3854 249.312 60.875 249.312C58.3958 249.312 56.5 248.495 55.1875 246.859C53.875 245.224 53.2031 242.88 53.1719 239.828V235.641C53.1719 232.464 53.8281 230.052 55.1406 228.406C56.4635 226.76 58.3646 225.938 60.8438 225.938C63.3229 225.938 65.2188 226.755 66.5312 228.391C67.8438 230.016 68.5156 232.354 68.5469 235.406V239.594ZM64.0312 235C64.0312 233.115 63.7708 231.745 63.25 230.891C62.7396 230.026 61.9375 229.594 60.8438 229.594C59.7812 229.594 58.9948 230.005 58.4844 230.828C57.9844 231.641 57.7188 232.917 57.6875 234.656V240.188C57.6875 242.042 57.9375 243.422 58.4375 244.328C58.9479 245.224 59.7604 245.672 60.875 245.672C61.9792 245.672 62.776 245.24 63.2656 244.375C63.7552 243.51 64.0104 242.188 64.0312 240.406V235Z" fill="#194496"/>
<path d="M90.5469 249H86.0312V231.594L80.6406 233.266V229.594L90.0625 226.219H90.5469V249Z" fill="#194496"/>
<path d="M129.203 239.594C129.203 242.74 128.552 245.146 127.25 246.812C125.948 248.479 124.042 249.312 121.531 249.312C119.052 249.312 117.156 248.495 115.844 246.859C114.531 245.224 113.859 242.88 113.828 239.828V235.641C113.828 232.464 114.484 230.052 115.797 228.406C117.12 226.76 119.021 225.938 121.5 225.938C123.979 225.938 125.875 226.755 127.188 228.391C128.5 230.016 129.172 232.354 129.203 235.406V239.594ZM124.688 235C124.688 233.115 124.427 231.745 123.906 230.891C123.396 230.026 122.594 229.594 121.5 229.594C120.438 229.594 119.651 230.005 119.141 230.828C118.641 231.641 118.375 232.917 118.344 234.656V240.188C118.344 242.042 118.594 243.422 119.094 244.328C119.604 245.224 120.417 245.672 121.531 245.672C122.635 245.672 123.432 245.24 123.922 244.375C124.411 243.51 124.667 242.188 124.688 240.406V235Z" fill="#194496"/>
<path d="M151.203 249H146.688V231.594L141.297 233.266V229.594L150.719 226.219H151.203V249Z" fill="#194496"/>
<path d="M181.891 239.594C181.891 242.74 181.24 245.146 179.938 246.812C178.635 248.479 176.729 249.312 174.219 249.312C171.74 249.312 169.844 248.495 168.531 246.859C167.219 245.224 166.547 242.88 166.516 239.828V235.641C166.516 232.464 167.172 230.052 168.484 228.406C169.807 226.76 171.708 225.938 174.188 225.938C176.667 225.938 178.562 226.755 179.875 228.391C181.188 230.016 181.859 232.354 181.891 235.406V239.594ZM177.375 235C177.375 233.115 177.115 231.745 176.594 230.891C176.083 230.026 175.281 229.594 174.188 229.594C173.125 229.594 172.339 230.005 171.828 230.828C171.328 231.641 171.062 232.917 171.031 234.656V240.188C171.031 242.042 171.281 243.422 171.781 244.328C172.292 245.224 173.104 245.672 174.219 245.672C175.323 245.672 176.12 245.24 176.609 244.375C177.099 243.51 177.354 242.188 177.375 240.406V235Z" fill="#194496"/>
<path d="M208.234 239.594C208.234 242.74 207.583 245.146 206.281 246.812C204.979 248.479 203.073 249.312 200.562 249.312C198.083 249.312 196.188 248.495 194.875 246.859C193.562 245.224 192.891 242.88 192.859 239.828V235.641C192.859 232.464 193.516 230.052 194.828 228.406C196.151 226.76 198.052 225.938 200.531 225.938C203.01 225.938 204.906 226.755 206.219 228.391C207.531 230.016 208.203 232.354 208.234 235.406V239.594ZM203.719 235C203.719 233.115 203.458 231.745 202.938 230.891C202.427 230.026 201.625 229.594 200.531 229.594C199.469 229.594 198.682 230.005 198.172 230.828C197.672 231.641 197.406 232.917 197.375 234.656V240.188C197.375 242.042 197.625 243.422 198.125 244.328C198.635 245.224 199.448 245.672 200.562 245.672C201.667 245.672 202.464 245.24 202.953 244.375C203.443 243.51 203.698 242.188 203.719 240.406V235Z" fill="#194496"/>
<path d="M230.234 249H225.719V231.594L220.328 233.266V229.594L229.75 226.219H230.234V249Z" fill="#194496"/>
<path d="M256.578 249H252.062V231.594L246.672 233.266V229.594L256.094 226.219H256.578V249Z" fill="#194496"/>
<path d="M11.5156 294H7V276.594L1.60938 278.266V274.594L11.0312 271.219H11.5156V294Z" fill="#194496"/>
<path d="M42.2031 284.594C42.2031 287.74 41.5521 290.146 40.25 291.812C38.9479 293.479 37.0417 294.312 34.5312 294.312C32.0521 294.312 30.1562 293.495 28.8438 291.859C27.5312 290.224 26.8594 287.88 26.8281 284.828V280.641C26.8281 277.464 27.4844 275.052 28.7969 273.406C30.1198 271.76 32.0208 270.938 34.5 270.938C36.9792 270.938 38.875 271.755 40.1875 273.391C41.5 275.016 42.1719 277.354 42.2031 280.406V284.594ZM37.6875 280C37.6875 278.115 37.4271 276.745 36.9062 275.891C36.3958 275.026 35.5938 274.594 34.5 274.594C33.4375 274.594 32.651 275.005 32.1406 275.828C31.6406 276.641 31.375 277.917 31.3438 279.656V285.188C31.3438 287.042 31.5938 288.422 32.0938 289.328C32.6042 290.224 33.4167 290.672 34.5312 290.672C35.6354 290.672 36.4323 290.24 36.9219 289.375C37.4115 288.51 37.6667 287.188 37.6875 285.406V280Z" fill="#194496"/>
<path d="M64.2031 294H59.6875V276.594L54.2969 278.266V274.594L63.7188 271.219H64.2031V294Z" fill="#194496"/>
<path d="M94.8906 284.594C94.8906 287.74 94.2396 290.146 92.9375 291.812C91.6354 293.479 89.7292 294.312 87.2188 294.312C84.7396 294.312 82.8438 293.495 81.5312 291.859C80.2188 290.224 79.5469 287.88 79.5156 284.828V280.641C79.5156 277.464 80.1719 275.052 81.4844 273.406C82.8073 271.76 84.7083 270.938 87.1875 270.938C89.6667 270.938 91.5625 271.755 92.875 273.391C94.1875 275.016 94.8594 277.354 94.8906 280.406V284.594ZM90.375 280C90.375 278.115 90.1146 276.745 89.5938 275.891C89.0833 275.026 88.2812 274.594 87.1875 274.594C86.125 274.594 85.3385 275.005 84.8281 275.828C84.3281 276.641 84.0625 277.917 84.0312 279.656V285.188C84.0312 287.042 84.2812 288.422 84.7812 289.328C85.2917 290.224 86.1042 290.672 87.2188 290.672C88.3229 290.672 89.1198 290.24 89.6094 289.375C90.099 288.51 90.3542 287.188 90.375 285.406V280Z" fill="#194496"/>
<path d="M116.891 294H112.375V276.594L106.984 278.266V274.594L116.406 271.219H116.891V294Z" fill="#194496"/>
<path d="M143.234 294H138.719V276.594L133.328 278.266V274.594L142.75 271.219H143.234V294Z" fill="#194496"/>
<path d="M173.922 284.594C173.922 287.74 173.271 290.146 171.969 291.812C170.667 293.479 168.76 294.312 166.25 294.312C163.771 294.312 161.875 293.495 160.562 291.859C159.25 290.224 158.578 287.88 158.547 284.828V280.641C158.547 277.464 159.203 275.052 160.516 273.406C161.839 271.76 163.74 270.938 166.219 270.938C168.698 270.938 170.594 271.755 171.906 273.391C173.219 275.016 173.891 277.354 173.922 280.406V284.594ZM169.406 280C169.406 278.115 169.146 276.745 168.625 275.891C168.115 275.026 167.312 274.594 166.219 274.594C165.156 274.594 164.37 275.005 163.859 275.828C163.359 276.641 163.094 277.917 163.062 279.656V285.188C163.062 287.042 163.312 288.422 163.812 289.328C164.323 290.224 165.135 290.672 166.25 290.672C167.354 290.672 168.151 290.24 168.641 289.375C169.13 288.51 169.385 287.188 169.406 285.406V280Z" fill="#194496"/>
<path d="M200.266 284.594C200.266 287.74 199.615 290.146 198.312 291.812C197.01 293.479 195.104 294.312 192.594 294.312C190.115 294.312 188.219 293.495 186.906 291.859C185.594 290.224 184.922 287.88 184.891 284.828V280.641C184.891 277.464 185.547 275.052 186.859 273.406C188.182 271.76 190.083 270.938 192.562 270.938C195.042 270.938 196.938 271.755 198.25 273.391C199.562 275.016 200.234 277.354 200.266 280.406V284.594ZM195.75 280C195.75 278.115 195.49 276.745 194.969 275.891C194.458 275.026 193.656 274.594 192.562 274.594C191.5 274.594 190.714 275.005 190.203 275.828C189.703 276.641 189.438 277.917 189.406 279.656V285.188C189.406 287.042 189.656 288.422 190.156 289.328C190.667 290.224 191.479 290.672 192.594 290.672C193.698 290.672 194.495 290.24 194.984 289.375C195.474 288.51 195.729 287.188 195.75 285.406V280Z" fill="#194496"/>
<path d="M222.266 294H217.75V276.594L212.359 278.266V274.594L221.781 271.219H222.266V294Z" fill="#194496"/>
<path d="M248.609 294H244.094V276.594L238.703 278.266V274.594L248.125 271.219H248.609V294Z" fill="#194496"/>
</svg>
