<svg width="2307" height="2308" viewBox="0 0 2307 2308" fill="none" xmlns="http://www.w3.org/2000/svg">
<path d="M719.341 684.638L703.715 667.761M632.717 591.083L562.059 588.365M632.717 591.083L635.435 520.425M632.717 591.083L703.715 667.761M703.715 667.761L619.631 664.527L618.571 692.084M703.715 667.761L706.949 583.678L734.506 584.738" stroke="#EFA460" stroke-width="5"/>
<circle cx="750.646" cy="716.978" r="43" transform="rotate(137.203 750.646 716.978)" stroke="#EFA460" stroke-width="5"/>
<path d="M1620.97 718.612L1637.85 702.986M1714.53 631.988L1717.24 561.33M1714.53 631.988L1785.18 634.706M1714.53 631.988L1637.85 702.986M1637.85 702.986L1641.08 618.902L1613.53 617.842M1637.85 702.986L1721.93 706.22L1720.87 733.777" stroke="#EFA460" stroke-width="5"/>
<circle cx="1588.63" cy="749.919" r="43" transform="rotate(-132.797 1588.63 749.919)" stroke="#EFA460" stroke-width="5"/>
<path d="M1517.51 628.065L1529.77 608.604M1585.46 520.179L1569.8 451.225M1585.46 520.179L1654.41 504.517M1585.46 520.179L1529.77 608.604M1529.77 608.604L1511.13 526.548L1484.24 532.656M1529.77 608.604L1611.82 589.965L1617.93 616.858" stroke="#EFA460" stroke-width="5"/>
<circle cx="1494.38" cy="666.676" r="43" transform="rotate(-147.797 1494.38 666.676)" stroke="#EFA460" stroke-width="5"/>
<path d="M1386.31 559.048L1395.15 537.814M1435.3 441.335L1408.35 375.962M1435.3 441.335L1500.68 414.385M1435.3 441.335L1395.15 537.814M1395.15 537.814L1363.08 460.019L1337.59 470.53M1395.15 537.814L1472.95 505.743L1483.46 531.238" stroke="#EFA460" stroke-width="5"/>
<circle cx="1369.95" cy="600.978" r="43" transform="rotate(-157.404 1369.95 600.978)" stroke="#EFA460" stroke-width="5"/>
<path d="M1251.66 523.146L1254.96 500.383M1269.92 396.96L1227.6 340.315M1269.92 396.96L1326.57 354.635M1269.92 396.96L1254.96 500.383M1254.96 500.383L1204.59 432.975L1182.5 449.482M1254.96 500.383L1322.36 450.016L1338.87 472.108" stroke="#EFA460" stroke-width="5"/>
<circle cx="1246.21" cy="567.825" r="43" transform="rotate(-171.767 1246.21 567.825)" stroke="#EFA460" stroke-width="5"/>
<path d="M1107.76 516.373L1106.39 493.414M1100.15 389.1L1047.25 342.173M1100.15 389.1L1147.08 336.205M1100.15 389.1L1106.39 493.414M1106.39 493.414L1043.44 437.571L1025.14 458.2M1106.39 493.414L1162.23 430.469L1182.86 448.77" stroke="#EFA460" stroke-width="5"/>
<circle cx="1111.44" cy="561.233" r="43" transform="rotate(176.578 1111.44 561.233)" stroke="#EFA460" stroke-width="5"/>
<path d="M968.206 541.132L962.112 518.954M934.425 418.189L872.965 383.223M934.425 418.189L969.391 356.728M934.425 418.189L962.112 518.954M962.112 518.954L888.974 477.345L875.338 501.315M962.112 518.954L1003.72 445.816L1027.69 459.453" stroke="#EFA460" stroke-width="5"/>
<circle cx="981.091" cy="584.259" r="43" transform="rotate(164.636 981.091 584.259)" stroke="#EFA460" stroke-width="5"/>
<path d="M836.844 597.609L825.175 577.788M772.158 487.736L703.704 470.016M772.158 487.736L789.878 419.282M772.158 487.736L825.175 577.788M825.175 577.788L743.715 556.701L736.804 583.399M825.175 577.788L846.262 496.328L872.959 503.239" stroke="#EFA460" stroke-width="5"/>
<circle cx="860.535" cy="635.88" r="43" transform="rotate(149.513 860.535 635.88)" stroke="#EFA460" stroke-width="5"/>
<path d="M1587.62 1622.39L1603.25 1639.26M1674.25 1715.94L1744.91 1718.66M1674.25 1715.94L1671.53 1786.6M1674.25 1715.94L1603.25 1639.26M1603.25 1639.26L1687.33 1642.5L1688.39 1614.94M1603.25 1639.26L1600.02 1723.35L1572.46 1722.29" stroke="#EFA460" stroke-width="5"/>
<circle cx="1556.32" cy="1590.05" r="43" transform="rotate(-42.7972 1556.32 1590.05)" stroke="#EFA460" stroke-width="5"/>
<path d="M685.993 1588.41L669.117 1604.04M592.438 1675.04L589.72 1745.69M592.438 1675.04L521.78 1672.32M592.438 1675.04L669.117 1604.04M669.117 1604.04L665.882 1688.12L693.439 1689.18M669.117 1604.04L585.033 1600.8L586.093 1573.25" stroke="#EFA460" stroke-width="5"/>
<circle cx="718.335" cy="1557.11" r="43" transform="rotate(47.2028 718.335 1557.11)" stroke="#EFA460" stroke-width="5"/>
<path d="M789.453 1678.96L777.196 1698.42M721.506 1786.85L737.168 1855.8M721.506 1786.85L652.551 1802.51M721.506 1786.85L777.196 1698.42M777.196 1698.42L795.834 1780.48L822.726 1774.37M777.196 1698.42L695.14 1717.06L689.032 1690.17" stroke="#EFA460" stroke-width="5"/>
<circle cx="812.589" cy="1640.35" r="43" transform="rotate(32.2028 812.589 1640.35)" stroke="#EFA460" stroke-width="5"/>
<path d="M920.651 1747.98L911.813 1769.21M871.661 1865.69L898.612 1931.06M871.661 1865.69L806.288 1892.64M871.661 1865.69L911.813 1769.21M911.813 1769.21L943.884 1847.01L969.38 1836.49M911.813 1769.21L834.019 1801.28L823.508 1775.79" stroke="#EFA460" stroke-width="5"/>
<circle cx="937.017" cy="1706.05" r="43" transform="rotate(22.596 937.017 1706.05)" stroke="#EFA460" stroke-width="5"/>
<path d="M1055.3 1783.88L1052.01 1806.64M1037.04 1910.06L1079.37 1966.71M1037.04 1910.06L980.4 1952.39M1037.04 1910.06L1052.01 1806.64M1052.01 1806.64L1102.38 1874.05L1124.47 1857.54M1052.01 1806.64L984.602 1857.01L968.095 1834.92" stroke="#EFA460" stroke-width="5"/>
<circle cx="1060.76" cy="1739.2" r="43" transform="rotate(8.23325 1060.76 1739.2)" stroke="#EFA460" stroke-width="5"/>
<path d="M1199.21 1790.65L1200.58 1813.61M1206.82 1917.92L1259.71 1964.85M1206.82 1917.92L1159.89 1970.82M1206.82 1917.92L1200.58 1813.61M1200.58 1813.61L1263.52 1869.45L1281.83 1848.82M1200.58 1813.61L1144.74 1876.56L1124.11 1858.25" stroke="#EFA460" stroke-width="5"/>
<circle cx="1195.52" cy="1745.79" r="43" transform="rotate(-3.42161 1195.52 1745.79)" stroke="#EFA460" stroke-width="5"/>
<path d="M1338.76 1765.89L1344.85 1788.07M1372.54 1888.84L1434 1923.8M1372.54 1888.84L1337.57 1950.3M1372.54 1888.84L1344.85 1788.07M1344.85 1788.07L1417.99 1829.68L1431.63 1805.71M1344.85 1788.07L1303.24 1861.21L1279.27 1847.57" stroke="#EFA460" stroke-width="5"/>
<circle cx="1325.87" cy="1722.77" r="43" transform="rotate(-15.3638 1325.87 1722.77)" stroke="#EFA460" stroke-width="5"/>
<path d="M1470.12 1709.42L1481.79 1729.24M1534.81 1819.29L1603.26 1837.01M1534.81 1819.29L1517.09 1887.74M1534.81 1819.29L1481.79 1729.24M1481.79 1729.24L1563.25 1750.32L1570.16 1723.63M1481.79 1729.24L1460.7 1810.7L1434.01 1803.79" stroke="#EFA460" stroke-width="5"/>
<circle cx="1446.43" cy="1671.14" r="43" transform="rotate(-30.4869 1446.43 1671.14)" stroke="#EFA460" stroke-width="5"/>
<path d="M1705.34 830.924L1725.69 820.198M1818.13 771.465L1885.68 792.378M1818.13 771.465L1839.04 703.918M1818.13 771.465L1725.69 820.198M1725.69 820.198L1806.07 845.085L1797.91 871.428M1725.69 820.198L1750.57 739.817L1724.23 731.661" stroke="#EFA460" stroke-width="5"/>
<circle r="43" transform="matrix(0.466343 0.884604 0.884604 -0.466343 1665.07 851.025)" stroke="#EFA460" stroke-width="5"/>
<path d="M1764.08 967.034L1785.93 959.854M1885.2 927.232L1948.31 959.124M1885.2 927.232L1917.1 864.122M1885.2 927.232L1785.93 959.854M1785.93 959.854L1861.03 997.806L1848.59 1022.42M1785.93 959.854L1823.88 884.753L1799.27 872.315" stroke="#EFA460" stroke-width="5"/>
<circle r="43" transform="matrix(0.312174 0.950025 0.950025 -0.312174 1721.01 980.132)" stroke="#EFA460" stroke-width="5"/>
<path d="M1789.53 1104.05L1812.48 1102.51M1916.74 1095.54L1969.97 1142.09M1916.74 1095.54L1963.29 1042.31M1916.74 1095.54L1812.48 1102.51M1812.48 1102.51L1875.82 1157.91L1857.66 1178.67M1812.48 1102.51L1867.87 1039.17L1847.11 1021.02" stroke="#EFA460" stroke-width="5"/>
<circle r="43" transform="matrix(0.0667538 0.997769 0.997769 -0.0667538 1744.56 1106.05)" stroke="#EFA460" stroke-width="5"/>
<path d="M1785.23 1248.04L1808.01 1251.18M1911.54 1265.41L1954.26 1321.75M1911.54 1265.41L1967.88 1222.68M1911.54 1265.41L1808.01 1251.18M1808.01 1251.18L1858.85 1318.23L1836.88 1334.89M1808.01 1251.18L1875.06 1200.33L1858.4 1178.36" stroke="#EFA460" stroke-width="5"/>
<circle r="43" transform="matrix(-0.136188 0.990683 0.990683 0.136188 1740.78 1240.93)" stroke="#EFA460" stroke-width="5"/>
<path d="M1749.82 1385.28L1771.47 1393.06M1869.81 1428.41L1899.95 1492.37M1869.81 1428.41L1933.77 1398.27M1869.81 1428.41L1771.47 1393.06M1771.47 1393.06L1807.33 1469.18L1782.39 1480.94M1771.47 1393.06L1847.58 1357.19L1835.83 1332.25" stroke="#EFA460" stroke-width="5"/>
<circle r="43" transform="matrix(-0.338237 0.941061 0.941061 0.338237 1707.81 1369.12)" stroke="#EFA460" stroke-width="5"/>
<path d="M1683.42 1511.92L1702.28 1525.08M1788 1584.85L1800.41 1654.47M1788 1584.85L1857.61 1572.45M1788 1584.85L1702.28 1525.08M1702.28 1525.08L1717.05 1607.92L1689.9 1612.76M1702.28 1525.08L1785.12 1510.31L1780.28 1483.16" stroke="#EFA460" stroke-width="5"/>
<circle r="43" transform="matrix(-0.572039 0.820226 0.820226 0.572039 1647.08 1485.36)" stroke="#EFA460" stroke-width="5"/>
<path d="M603.663 1478.3L583.317 1489.03M490.876 1537.76L423.328 1516.85M490.876 1537.76L469.963 1605.31M490.876 1537.76L583.317 1489.03M583.317 1489.03L502.936 1464.14L511.092 1437.8M583.317 1489.03L558.43 1569.41L584.774 1577.57" stroke="#EFA460" stroke-width="5"/>
<circle r="43" transform="matrix(-0.466343 -0.884604 -0.884604 0.466343 643.938 1458.2)" stroke="#EFA460" stroke-width="5"/>
<path d="M544.928 1342.19L523.078 1349.37M423.8 1381.99L360.69 1350.1M423.8 1381.99L391.907 1445.1M423.8 1381.99L523.078 1349.37M523.078 1349.37L447.977 1311.42L460.415 1286.81M523.078 1349.37L485.125 1424.47L509.738 1436.91" stroke="#EFA460" stroke-width="5"/>
<circle r="43" transform="matrix(-0.312174 -0.950025 -0.950025 0.312174 587.992 1329.09)" stroke="#EFA460" stroke-width="5"/>
<path d="M519.476 1205.18L496.528 1206.71M392.261 1213.69L339.035 1167.14M392.261 1213.69L345.71 1266.92M392.261 1213.69L496.528 1206.71M496.528 1206.71L433.189 1151.32L451.343 1130.56M496.528 1206.71L441.132 1270.05L461.891 1288.21" stroke="#EFA460" stroke-width="5"/>
<circle r="43" transform="matrix(-0.0667538 -0.997769 -0.997769 0.0667538 564.443 1203.17)" stroke="#EFA460" stroke-width="5"/>
<path d="M523.778 1061.18L500.993 1058.05M397.466 1043.82L354.742 987.474M397.466 1043.82L341.123 1086.54M397.466 1043.82L500.993 1058.05M500.993 1058.05L450.15 991L472.124 974.338M500.993 1058.05L433.944 1108.89L450.607 1130.87" stroke="#EFA460" stroke-width="5"/>
<circle r="43" transform="matrix(0.136188 -0.990683 -0.990683 -0.136188 568.222 1068.3)" stroke="#EFA460" stroke-width="5"/>
<path d="M559.182 923.943L537.537 916.164M439.196 880.818L409.055 816.853M439.196 880.818L375.231 910.959M439.196 880.818L537.537 916.164M537.537 916.164L501.669 840.045L526.615 828.29M537.537 916.164L461.419 952.032L473.174 976.978" stroke="#EFA460" stroke-width="5"/>
<circle r="43" transform="matrix(0.338237 -0.941061 -0.941061 -0.338237 601.193 940.105)" stroke="#EFA460" stroke-width="5"/>
<path d="M625.586 797.306L606.72 784.149M521.007 724.371L508.597 654.758M521.007 724.371L451.394 736.78M521.007 724.371L606.72 784.149M606.72 784.149L591.953 701.309L619.102 696.47M606.72 784.149L523.881 798.916L528.72 826.066" stroke="#EFA460" stroke-width="5"/>
<circle r="43" transform="matrix(0.572039 -0.820226 -0.820226 -0.572039 661.922 823.868)" stroke="#EFA460" stroke-width="5"/>
</svg>
