<svg width="1920" height="1200" viewBox="0 0 1920 1200" fill="none" xmlns="http://www.w3.org/2000/svg">
<mask id="mask0" mask-type="alpha" maskUnits="userSpaceOnUse" x="0" y="0" width="1920" height="1200">
<rect width="1920" height="1200" fill="#C4C4C4"/>
</mask>
<g mask="url(#mask0)">
<mask id="mask1" mask-type="alpha" maskUnits="userSpaceOnUse" x="0" y="-1308" width="1920" height="2914">
<rect y="-1308" width="1920" height="2914" fill="#C4C4C4"/>
</mask>
<g mask="url(#mask1)">
<path d="M-28.0402 -5289C133.379 -5087.5 478.751 -4758.5 836.31 -4885C1209.94 -5017.18 2230.25 -6113.96 1591.25 -6186.46C952.249 -6258.96 547.061 -5182.2 726.138 -4923C915.434 -4649.01 1571.53 -4590.84 1780.79 -4813C1990.04 -5035.16 1651.08 -5206 1635.56 -4885C1620.03 -4563.99 2468.36 -4215 1780.79 -3915.5C1093.21 -3616 -13.0167 -3362 -192.297 -3550.5C-397.732 -3766.5 -377.586 -3860.5 -288.447 -3966C0.833112 -4308.38 364.574 -3687.5 185.293 -3320C6.01315 -2952.5 108.42 -2589.36 446.702 -2618C784.983 -2646.64 1007.58 -2565 892.398 -2248.5C726.274 -1792.01 1753.19 -1750.96 1819.85 -1846.5C1904.98 -1968.5 1685.14 -2144 1485.82 -1846.5C1313.74 -1589.63 903.415 -1338.5 573.9 -1188.5C244.386 -1038.5 -345.036 -1125.5 -315.99 -1406C-286.945 -1686.5 275.935 -1365 294.965 -1065.5C313.994 -766 -430.669 -472 -353.048 -66C-284.086 294.705 315.497 446.5 315.497 769.5C315.497 988 6.81735 891.158 188.799 650.5C340.035 450.5 869.362 480.5 962.508 607.5" stroke="white" stroke-width="3"/>
<ellipse cx="371.085" cy="536.5" rx="24.5383" ry="24.5" fill="white"/>
</g>
</g>
</svg>
