<svg width="1920" height="1080" viewBox="0 0 1920 1080" fill="none" xmlns="http://www.w3.org/2000/svg">
<mask id="mask0" mask-type="alpha" maskUnits="userSpaceOnUse" x="0" y="0" width="1920" height="1080">
<rect width="1920" height="1080" fill="#C4C4C4"/>
</mask>
<g mask="url(#mask0)">
<mask id="mask1" mask-type="alpha" maskUnits="userSpaceOnUse" x="0" y="4" width="1920" height="2909">
<rect y="4" width="1920" height="2909" fill="#C4C4C4"/>
</mask>
<g mask="url(#mask1)">
<path d="M-28.0441 -3970.16C133.375 -3769 478.747 -3440.57 836.306 -3566.85C1209.94 -3698.81 2230.24 -4793.7 1591.24 -4866.08C952.245 -4938.46 547.057 -3863.55 726.134 -3604.79C915.43 -3331.27 1571.53 -3273.19 1780.78 -3494.97C1990.04 -3716.75 1651.08 -3887.3 1635.56 -3566.85C1620.03 -3246.4 2468.36 -2898 1780.78 -2599.02C1093.21 -2300.03 -13.0206 -2046.47 -192.301 -2234.64C-397.736 -2450.27 -377.59 -2544.11 -288.451 -2649.43C0.829206 -2991.22 364.57 -2371.41 185.289 -2004.54C6.00924 -1637.67 108.416 -1275.16 446.698 -1303.74C784.979 -1332.33 1007.57 -1250.84 892.394 -934.878C726.27 -479.174 1753.18 -438.196 1819.84 -533.564C1904.98 -655.359 1685.13 -830.555 1485.82 -533.564C1313.73 -277.141 903.411 -26.4398 573.897 123.303C244.382 273.045 -345.04 186.19 -315.994 -93.8284C-286.949 -373.847 275.931 -52.8944 294.961 246.092C313.99 545.078 -430.673 838.573 -353.052 1243.88C-284.09 1603.96 315.493 1755.5 315.493 2077.94C315.493 2296.07 6.81345 2199.39 188.795 1959.15C340.031 1759.49 869.358 1789.44 962.504 1916.22" stroke="white" stroke-width="3"/>
</g>
</g>
</svg>
