<svg width="1920" height="1200" viewBox="0 0 1920 1200" fill="none" xmlns="http://www.w3.org/2000/svg">
<mask id="mask0" mask-type="alpha" maskUnits="userSpaceOnUse" x="0" y="0" width="1920" height="1200">
<rect width="1920" height="1200" fill="#E23A3A"/>
</mask>
<g mask="url(#mask0)">
<mask id="mask1" mask-type="alpha" maskUnits="userSpaceOnUse" x="0" y="-1200" width="1920" height="3600">
<rect y="-1200" width="1920" height="3600" fill="#C4C4C4"/>
</mask>
<g mask="url(#mask1)">
<path d="M-27.9983 -385.997C133.168 -184.497 478.001 144.503 835.001 18.0032C1208.05 -114.183 2226.76 -1210.96 1588.76 -1283.46C950.76 -1355.96 546.204 -279.202 725.001 -20C914.001 253.994 1569.08 312.164 1778 90.0032C1986.93 -132.158 1648.5 -303 1633 18.0032C1617.5 339.006 2464.5 688 1778 987.5C1091.5 1287 -12.9982 1541 -191.998 1352.5C-397.112 1136.5 -376.998 1042.5 -287.998 937C0.829887 594.625 364.002 1215.5 185.002 1583C6.00183 1950.5 108.249 2313.64 446.002 2285C783.755 2256.36 1006 2338 891.002 2654.5C725.137 3110.99 1750.45 3152.04 1817 3056.5C1902 2934.5 1682.5 2759 1483.5 3056.5C1311.68 3313.37 902.002 3564.5 573.002 3714.5C244.002 3864.5 -344.498 3777.5 -315.498 3497C-286.498 3216.5 275.502 3538 294.502 3837.5C313.502 4137 -429.998 4431 -352.498 4837C-283.644 5197.71 315.002 5349.5 315.002 5672.5C315.002 5891 6.80478 5794.16 188.502 5553.5C339.502 5353.5 868.002 5383.5 961.002 5510.5" stroke="white" stroke-width="3"/>
<circle cx="1767.5" cy="94.5" r="24.5" fill="white"/>
</g>
</g>
</svg>
