<svg width="1920" height="1200" viewBox="0 0 1920 1200" fill="none" xmlns="http://www.w3.org/2000/svg">
<mask id="mask0" mask-type="alpha" maskUnits="userSpaceOnUse" x="0" y="0" width="1920" height="1200">
<rect width="1920" height="1200" fill="#C94D4D"/>
</mask>
<g mask="url(#mask0)">
<mask id="mask1" mask-type="alpha" maskUnits="userSpaceOnUse" x="0" y="0" width="1920" height="3600">
<rect width="1920" height="3600" fill="#C4C4C4"/>
</mask>
<g mask="url(#mask1)">
<path d="M-27.9983 814.003C133.168 1015.5 478.001 1344.5 835.001 1218C1208.05 1085.82 2226.76 -10.9586 1588.76 -83.4586C950.76 -155.959 546.204 920.798 725.001 1180C914.001 1453.99 1569.08 1512.16 1778 1290C1986.93 1067.84 1648.5 897 1633 1218C1617.5 1539.01 2464.5 1888 1778 2187.5C1091.5 2487 -12.9982 2741 -191.998 2552.5C-397.112 2336.5 -376.998 2242.5 -287.998 2137C0.829887 1794.62 364.002 2415.5 185.002 2783C6.00183 3150.5 108.249 3513.64 446.002 3485C783.755 3456.36 1006 3538 891.002 3854.5C725.137 4310.99 1750.45 4352.04 1817 4256.5C1902 4134.5 1682.5 3959 1483.5 4256.5C1311.68 4513.37 902.002 4764.5 573.002 4914.5C244.002 5064.5 -344.498 4977.5 -315.498 4697C-286.498 4416.5 275.502 4738 294.502 5037.5C313.502 5337 -429.998 5631 -352.498 6037C-283.644 6397.71 315.002 6549.5 315.002 6872.5C315.002 7091 6.80478 6994.16 188.502 6753.5C339.502 6553.5 868.002 6583.5 961.002 6710.5" stroke="white" stroke-width="3"/>
</g>
</g>
</svg>
