<svg width="1920" height="1200" viewBox="0 0 1920 1200" fill="none" xmlns="http://www.w3.org/2000/svg">
<mask id="mask0" mask-type="alpha" maskUnits="userSpaceOnUse" x="0" y="0" width="1920" height="1200">
<rect width="1920" height="1200" fill="#BC2424"/>
</mask>
<g mask="url(#mask0)">
<mask id="mask1" mask-type="alpha" maskUnits="userSpaceOnUse" x="0" y="-2400" width="1920" height="3600">
<rect y="-2400" width="1920" height="3600" fill="#C4C4C4"/>
</mask>
<g mask="url(#mask1)">
<path d="M-27.9983 -1586C133.168 -1384.5 478.001 -1055.5 835.001 -1182C1208.05 -1314.18 2226.76 -2410.96 1588.76 -2483.46C950.76 -2555.96 546.204 -1479.2 725.001 -1220C914.001 -946.006 1569.08 -887.836 1778 -1110C1986.93 -1332.16 1648.5 -1503 1633 -1182C1617.5 -860.994 2464.5 -512 1778 -212.5C1091.5 87 -12.9982 341 -191.998 152.5C-397.112 -63.5 -376.998 -157.5 -287.998 -263C0.829887 -605.375 364.002 15.5 185.002 383C6.00183 750.5 108.249 1113.64 446.002 1085C783.755 1056.36 1006 1138 891.002 1454.5C725.137 1910.99 1750.45 1952.04 1817 1856.5C1902 1734.5 1682.5 1559 1483.5 1856.5C1311.68 2113.37 902.002 2364.5 573.002 2514.5C244.002 2664.5 -344.498 2577.5 -315.498 2297C-286.498 2016.5 275.502 2338 294.502 2637.5C313.502 2937 -429.998 3231 -352.498 3637C-283.644 3997.71 315.002 4149.5 315.002 4472.5C315.002 4691 6.80478 4594.16 188.502 4353.5C339.502 4153.5 868.002 4183.5 961.002 4310.5" stroke="white" stroke-width="3"/>
</g>
</g>
</svg>
