<svg width="86" height="86" viewBox="0 0 86 86" fill="none" xmlns="http://www.w3.org/2000/svg">
<path d="M43 0C19.2884 0 0 19.2902 0 43C0 66.7098 19.2884 86 43 86C66.7116 86 86 66.7098 86 43C86 19.2902 66.7116 0 43 0ZM43 82.4167C21.2655 82.4167 3.58328 64.7345 3.58328 43C3.58328 21.2655 21.2655 3.58328 43 3.58328C64.7345 3.58328 82.4167 21.2655 82.4167 43C82.4167 64.7345 64.7345 82.4167 43 82.4167Z" fill="#4D4D4D"/>
<path d="M60.0943 41.4945L35.0111 25.3695C34.4616 25.0109 33.7513 24.9916 33.1844 25.303C32.6069 25.618 32.25 26.22 32.25 26.876V59.126C32.25 59.7821 32.6069 60.3841 33.1844 60.6991C33.4503 60.8444 33.7478 60.9178 34.0417 60.9178C34.3777 60.9178 34.7171 60.8232 35.0111 60.6326L60.0943 44.5076C60.6053 44.1787 60.9167 43.6099 60.9167 43.001C60.9167 42.3922 60.6053 41.8236 60.0943 41.4945ZM35.8333 55.8436V30.1585L55.8111 43.001L35.8333 55.8436Z" fill="#4D4D4D"/>
</svg>
